<?xml version="1.0" encoding="UTF-8"?><svg id="Layer_1" xmlns="http://www.w3.org/2000/svg" viewBox="0 0 389.3 387.78"><defs><style>.cls-1{fill:#fab05d;}.cls-2{fill:#f37f57;}.cls-3{fill:#efb882;}.cls-4{fill:#de7450;}.cls-5{fill:#f79d59;}.cls-6{fill:#231f20;}</style></defs><g><path class="cls-5" d="M326.24,149.03c-.04-1.15-.12-2.34-.25-3.54-.08-1.15-.21-2.34-.33-3.49-.12-1.4-.33-2.8-.49-4.15-.12-.82-.25-1.64-.37-2.47-.08-.74-.21-1.48-.37-2.22-.04-.37-.12-.7-.21-1.03-.12-.82-.29-1.64-.45-2.47-.25-1.36-.53-2.71-.86-4.03-1.6-6.95-3.78-13.69-6.46-20.19-4.44-10.85-10.28-20.97-17.23-30.14-4.19-5.51-8.76-10.69-13.69-15.42-1.4-1.36-2.84-2.67-4.32-3.95-1.64-1.52-3.37-2.96-5.14-4.32-.7-.58-1.4-1.15-2.14-1.69-1.23-.95-2.47-1.89-3.74-2.8-1.44-.99-2.84-2.01-4.28-2.92-.25-.16-.45-.29-.7-.45-1.44-.95-2.88-1.85-4.36-2.63-.86-.58-1.73-1.07-2.59-1.56-1.69-.99-3.41-1.89-5.14-2.75-.29-.16-.62-.33-.9-.49-1.4-.66-2.84-1.36-4.28-2.01-.49-.25-.99-.45-1.48-.66-1.56-.7-3.17-1.36-4.77-1.97-.16-.08-.29-.16-.45-.21-1.11-.45-2.22-.86-3.37-1.23-1.77-.66-3.58-1.23-5.39-1.81-1.56-.53-3.12-.99-4.69-1.4-1.07-.29-2.14-.58-3.25-.86-.62-.12-1.23-.29-1.89-.45-1.27-.29-2.59-.58-3.91-.82-2.43-.49-4.89-.9-7.4-1.27-.21,0-.45-.04-.66-.08-.21,0-.41-.04-.62-.08-1.19-.12-2.34-.29-3.54-.41-.25-.04-.53-.04-.78-.08-.45-.04-.95-.08-1.44-.12-3.86-.33-7.81-.49-11.76-.49h-2.84c-.25,0-.49,0-.78,.04-.49,0-1.03,.04-1.56,.04-1.56,.04-3.12,.12-4.69,.29-.74,.04-1.48,.08-2.18,.16-.7,.04-1.44,.12-2.14,.21-.58,.04-1.11,.12-1.69,.21-1.27,.12-2.55,.29-3.82,.49-.86,.12-1.69,.25-2.51,.41-.49,.04-.99,.12-1.48,.25-.9,.16-1.77,.33-2.63,.49-.37,.08-.74,.12-1.11,.21-1.15,.25-2.26,.49-3.37,.74-.9,.21-1.77,.45-2.67,.66-.7,.16-1.36,.37-2.01,.53-.82,.21-1.64,.45-2.43,.7-2.67,.78-5.34,1.69-7.94,2.63-.58,.16-1.11,.37-1.64,.58-1.56,.58-3.08,1.23-4.6,1.85-.29,.12-.58,.25-.82,.37-.58,.25-1.15,.49-1.73,.74-.53,.25-1.11,.49-1.69,.78-.74,.33-1.48,.66-2.22,1.03-.41,.21-.78,.41-1.19,.62-6.74,3.37-13.16,7.28-19.2,11.72-.99,.74-2.01,1.48-2.96,2.26-.41,.29-.82,.62-1.19,.9-.08,.04-.12,.08-.21,.12-.41,.33-.82,.7-1.23,1.03-.29,.21-.58,.45-.86,.7-.49,.41-.99,.78-1.44,1.19-.16,.16-.33,.29-.49,.45-6.7,5.8-12.83,12.25-18.3,19.24-.9,1.15-1.81,2.34-2.67,3.54-1.6,2.22-3.17,4.48-4.65,6.83-.74,1.15-1.48,2.3-2.14,3.49-.21,.29-.37,.58-.53,.9-.7,1.19-1.36,2.38-2.01,3.58-.53,.9-1.03,1.81-1.48,2.71-.45,.95-.9,1.85-1.36,2.8-.7,1.4-1.36,2.8-1.97,4.23-.45,.95-.86,1.89-1.23,2.88-.41,.9-.78,1.85-1.15,2.8-.58,1.48-1.11,2.96-1.64,4.48-.66,1.93-1.32,3.86-1.85,5.84-.49,1.56-.9,3.12-1.32,4.73-.45,1.81-.9,3.62-1.27,5.43-.29,1.32-.53,2.63-.78,3.99-.12,.49-.21,.99-.29,1.48-.16,.9-.33,1.85-.41,2.75-.25,1.64-.49,3.33-.66,5.02-.16,1.69-.33,3.41-.45,5.1-.25,3.17-.37,6.37-.37,9.62,0,5.92,.41,11.76,1.15,17.43,1.85,14.51,6.04,28.25,12.17,40.87,1.6,3.29,3.29,6.46,5.18,9.58,1.19,2.01,2.43,4.03,3.74,5.96,1.27,1.97,2.63,3.91,4.03,5.76,1.4,1.89,2.84,3.74,4.32,5.55,1.48,1.77,3.04,3.54,4.61,5.26,1.6,1.73,3.25,3.45,4.89,5.1,.04,.04,.08,.08,.12,.12,1.69,1.64,3.41,3.25,5.18,4.77,1.69,1.52,3.41,2.96,5.18,4.4,.08,.04,.21,.12,.29,.21,1.85,1.48,3.78,2.92,5.71,4.28,3.45,2.47,6.99,4.77,10.69,6.82,1.81,1.07,3.7,2.1,5.59,3.04,1.89,.99,3.78,1.93,5.72,2.8,6.33,2.88,12.91,5.26,19.69,7.11,1.15,.33,2.26,.62,3.41,.9,2.3,.58,4.6,1.07,6.95,1.52,1.15,.25,2.34,.45,3.49,.62,1.19,.21,2.38,.37,3.58,.53,5.92,.82,12.01,1.23,18.17,1.23,1.81,0,3.62-.04,5.43-.12,1.27-.04,2.55-.12,3.86-.21,1.69-.12,3.41-.25,5.1-.45,1.6-.16,3.17-.33,4.73-.58,1.23-.16,2.51-.37,3.74-.58,2.06-.37,4.07-.78,6.13-1.23,1.32-.25,2.59-.58,3.91-.9,1.23-.33,2.51-.66,3.74-.99,.53-.16,1.03-.33,1.56-.45,1.19-.37,2.38-.74,3.58-1.15,5.59-1.81,11.02-4.03,16.24-6.54,.7-.33,1.4-.66,2.06-1.03,2.26-1.11,4.52-2.34,6.7-3.58,1.27-.78,2.59-1.56,3.86-2.34s2.55-1.6,3.78-2.47c2.51-1.69,4.97-3.45,7.36-5.26,1.19-.95,2.38-1.85,3.54-2.84,1.15-.95,2.3-1.93,3.41-2.92,1.11-.99,2.22-2.01,3.33-3.04,.08-.08,.21-.21,.29-.25,1.03-.99,1.97-1.93,2.92-2.92,1.07-1.07,2.1-2.14,3.12-3.25,.95-1.03,1.89-2.1,2.84-3.17,.04-.04,.08-.12,.16-.21,.99-1.11,1.93-2.3,2.88-3.45,3.78-4.69,7.28-9.62,10.4-14.8,.7-1.19,1.4-2.38,2.06-3.58,.82-1.4,1.6-2.88,2.34-4.32,.04-.12,.12-.21,.16-.33,.74-1.44,1.44-2.88,2.1-4.36,.78-1.6,1.52-3.25,2.18-4.89,.7-1.64,1.36-3.29,1.97-4.93,.62-1.69,1.19-3.37,1.73-5.06,.05-.15,.09-.29,.14-.44,.39-1.21,.76-2.42,1.12-3.64,.58-1.96,1.14-3.93,1.62-5.91,1.23-5.06,2.18-10.28,2.8-15.54,.45-3.54,.74-7.11,.86-10.73,.08-1.77,.12-3.62,.12-5.43,0-2.38-.08-4.77-.21-7.15Zm-111.05,90.66c-2.92,1.36-6.33,.66-8.47-1.52-.58-.58-1.07-1.27-1.44-2.06-.7-1.56-.82-3.25-.45-4.85l.04-.29-.86-1.97c-.29-.53-.49-1.07-.62-1.64-.04-.12-.08-.29-.08-.41-4.97-3.86-9.7-8.1-14.1-12.66-.95-.95-1.85-1.89-2.75-2.88-1.73-1.85-4.85-1.03-5.51,1.4-.62,2.26-1.27,4.52-1.89,6.74-1.81,6.41-3.62,12.79-5.39,19.16-.74,2.59-1.44,5.18-2.18,7.77-.74,2.67-4.28,3.29-5.84,1.03-.95-1.36-1.89-2.84-2.84-4.48-2.18-3.7-4.32-8.06-6.08-13.12-1.36-3.82-2.47-8.06-3.17-12.66-.58-3.95-.82-7.73-.78-11.35,.08-7.89,1.4-14.97,3.04-20.85,1.4-4.77,3-8.76,4.4-11.8-.33-.66-.7-1.32-.95-1.97-2.71-5.71-5.02-11.55-6.95-17.39-5.02-15.29-7.52-30.84-7.69-46.17-.12-11.27,1.07-22.45,3.41-33.26,.45-2.1,2.8-3.21,4.69-2.22,14.55,7.65,28,17.8,39.59,30.22,7.28,7.69,13.77,16.2,19.41,25.53,2.92,4.77,5.59,9.79,8.02,14.97,.33,.74,.7,1.4,.86,2.1,.37,.08,.78,.21,1.19,.33,3.95,1.11,9,2.84,14.47,5.59,7.28,3.66,15.25,9.09,22.37,17.19,.37,.41,.7,.82,1.03,1.23,8.22,9.66,12.33,19.74,14.47,27.34,.74,2.67-1.93,5.02-4.48,3.86-10.61-4.77-21.22-9.58-31.86-14.31-2.3-1.03-4.93,.82-4.61,3.33,.99,7.69,1.27,15.34,1.03,22.9,.49,.45,.82,1.11,1.19,1.77l.86,1.97c.25,.08,.49,.21,.7,.37,1.27,.7,2.3,1.85,3.04,3.29,.74,1.56,.86,3.17,.53,4.69-.49,2.22-2.01,4.11-4.15,5.1l-2.43,1.15-18.79,8.84Z"/><path class="cls-2" d="M326.45,156.19c0,1.81-.04,3.66-.12,5.43-.12,3.62-.41,7.2-.86,10.73-.62,5.26-1.56,10.44-2.8,15.54-.82,3.37-1.81,6.7-2.88,9.99-.53,1.69-1.11,3.37-1.73,5.06-.62,1.64-1.27,3.29-1.97,4.93-.66,1.64-1.4,3.29-2.18,4.89-.66,1.48-1.36,2.92-2.1,4.36-.04,.12-.12,.21-.16,.33-.74,1.44-1.52,2.92-2.34,4.32-.66,1.19-1.36,2.38-2.06,3.58-3.12,5.18-6.62,10.11-10.4,14.8-.95,1.15-1.89,2.34-2.88,3.45-.08,.08-.12,.16-.16,.21-.95,1.07-1.89,2.14-2.84,3.17-1.03,1.11-2.06,2.18-3.12,3.25-.95,.99-1.93,1.93-2.92,2.92-.08,.04-.21,.16-.29,.25-1.11,1.03-2.22,2.06-3.33,3.04-1.11,.99-2.26,1.97-3.41,2.92-1.15,.99-2.34,1.89-3.54,2.84-2.38,1.81-4.85,3.58-7.36,5.26-1.23,.86-2.51,1.69-3.78,2.47s-2.59,1.56-3.86,2.34c-2.18,1.23-4.44,2.47-6.7,3.58-.66,.37-1.36,.7-2.06,1.03-5.22,2.51-10.65,4.73-16.24,6.54-1.19,.41-2.38,.78-3.58,1.15-.53,.12-1.03,.29-1.56,.45-1.23,.33-2.51,.66-3.74,.99-1.32,.33-2.59,.66-3.91,.9-2.06,.45-4.07,.86-6.13,1.23-1.23,.21-2.51,.41-3.74,.58-1.56,.25-3.12,.41-4.73,.58-1.69,.21-3.41,.33-5.1,.45-1.32,.08-2.59,.16-3.86,.21-1.81,.08-3.62,.12-5.43,.12-6.17,0-12.25-.41-18.17-1.23-1.19-.16-2.38-.33-3.58-.53-1.15-.16-2.34-.37-3.49-.62-2.34-.45-4.65-.95-6.95-1.52-1.15-.29-2.26-.58-3.41-.9-6.78-1.85-13.36-4.23-19.69-7.11-1.93-.86-3.82-1.81-5.72-2.8-1.89-.95-3.78-1.97-5.59-3.04-3.7-2.1-7.24-4.4-10.69-6.82-1.93-1.36-3.86-2.8-5.71-4.28-.08-.08-.21-.16-.29-.21-1.77-1.44-3.49-2.88-5.18-4.4-1.77-1.52-3.49-3.12-5.18-4.77-.04-.04-.08-.08-.12-.12-1.64-1.64-3.29-3.37-4.89-5.1-1.56-1.73-3.12-3.49-4.61-5.26-1.48-1.81-2.92-3.66-4.32-5.55-1.4-1.85-2.75-3.78-4.03-5.76-1.32-1.93-2.55-3.95-3.74-5.96,3.21,.7,6.5,1.11,9.79,1.32,8.92,.53,17.97-.37,26.6-2.59,8.92-2.34,17.39-6.13,25.66-10.11,4.56-2.18,9.05-4.44,13.53-6.78-.04,3.62,.21,7.4,.78,11.35,.7,4.6,1.81,8.84,3.17,12.66,1.77,5.06,3.91,9.42,6.08,13.12,.95,1.64,1.89,3.12,2.84,4.48,1.56,2.26,5.1,1.64,5.84-1.03,.74-2.59,1.44-5.18,2.18-7.77,1.77-6.37,3.58-12.75,5.39-19.16,.62-2.22,1.27-4.48,1.89-6.74,.66-2.43,3.78-3.25,5.51-1.4,.9,.99,1.81,1.93,2.75,2.88,4.4,4.56,9.13,8.8,14.1,12.66,0,.12,.04,.29,.08,.41,.12,.58,.33,1.11,.62,1.64l.86,1.97-.04,.29c-.37,1.6-.25,3.29,.45,4.85,.37,.78,.86,1.48,1.44,2.06,2.14,2.18,5.55,2.88,8.47,1.52l18.79-8.84,2.43-1.15c2.14-.99,3.66-2.88,4.15-5.1,.33-1.52,.21-3.12-.53-4.69-.74-1.44-1.77-2.59-3.04-3.29-.21-.16-.45-.29-.7-.37l-.86-1.97c-.37-.66-.7-1.32-1.19-1.77,.25-7.57-.04-15.21-1.03-22.9-.33-2.51,2.3-4.36,4.61-3.33,10.65,4.73,21.26,9.54,31.86,14.31,2.55,1.15,5.22-1.19,4.48-3.86-2.14-7.61-6.25-17.68-14.47-27.34-.33-.41-.66-.82-1.03-1.23-7.11-8.1-15.09-13.53-22.37-17.19,3.99-2.96,8.1-5.71,12.46-8.06,22.49-12.09,48.89-12.7,74.17-17.27,.33,1.32,.62,2.67,.86,4.03,.16,.82,.33,1.64,.45,2.47,.08,.33,.16,.66,.21,1.03,.16,.74,.29,1.48,.37,2.22,.12,.82,.25,1.64,.37,2.47,.16,1.36,.37,2.75,.49,4.15,.12,1.15,.25,2.34,.33,3.49,.12,1.19,.21,2.38,.25,3.54,.12,2.38,.21,4.77,.21,7.15Z"/><path class="cls-5" d="M311.65,217.45c-.74,1.44-1.52,2.92-2.34,4.32-.66,1.19-1.36,2.38-2.06,3.58-3.12,5.18-6.62,10.11-10.4,14.8-.95,1.15-1.89,2.34-2.88,3.45-.08,.08-.12,.16-.16,.21-.95,1.07-1.89,2.14-2.84,3.17-1.03,1.11-2.06,2.18-3.12,3.25-.95,.99-1.93,1.93-2.92,2.92-.08,.04-.21,.16-.29,.25-1.11,1.03-2.22,2.06-3.33,3.04-1.11,.99-2.26,1.97-3.41,2.92-1.15,.99-2.34,1.89-3.54,2.84-2.38,1.81-4.85,3.58-7.36,5.26-1.23,.86-2.51,1.69-3.78,2.47s-2.59,1.56-3.86,2.34c-2.18,1.23-4.44,2.47-6.7,3.58-.66,.37-1.36,.7-2.06,1.03-5.22,2.51-10.65,4.73-16.24,6.54-1.19,.41-2.38,.78-3.58,1.15-.53,.12-1.03,.29-1.56,.45-1.23,.33-2.51,.66-3.74,.99-1.32,.33-2.59,.66-3.91,.9-2.06,.45-4.07,.86-6.13,1.23-1.23,.21-2.51,.41-3.74,.58-1.56,.25-3.12,.41-4.73,.58-1.69,.21-3.41,.33-5.1,.45-1.32,.08-2.59,.16-3.86,.21-1.81,.08-3.62,.12-5.43,.12-6.17,0-12.25-.41-18.17-1.23-1.19-.16-2.38-.33-3.58-.53-1.15-.16-2.34-.37-3.49-.62-2.34-.45-4.65-.95-6.95-1.52-1.15-.29-2.26-.58-3.41-.9-6.78-1.85-13.36-4.23-19.69-7.11,17.19-13.36,35.69-25.82,55.18-34.41,4.69-2.06,9.46-3.91,14.27-5.55,2.14,2.18,5.55,2.88,8.47,1.52l18.79-8.84c25.61-5.47,52.26-8.02,77.67-13.4Z"/><path class="cls-1" d="M159.28,171.28c.25,.66,.62,1.32,.95,1.97-1.4,3.04-3,7.03-4.4,11.8-26.6,13.2-54.81,23.11-83.79,29.44-6.13-12.62-10.32-26.35-12.17-40.87,11.14,.37,22.28,.04,33.26-2.06,7.07-1.36,13.94-3.45,20.8-5.55,12.79-3.86,25.7-7.77,38.4-12.13,1.93,5.84,4.23,11.68,6.95,17.39Z"/><path class="cls-1" d="M316.46,105.45c-.21,.12-.41,.25-.66,.33-4.89,2.06-10.24,2.75-15.46,3.78-28.53,5.59-53.78,20.02-78.53,35.81-.41-.12-.82-.25-1.19-.33-.16-.7-.53-1.36-.86-2.1-2.43-5.18-5.1-10.2-8.02-14.97,9.09-5.22,17.84-11.14,26.03-17.84,6.58-5.39,12.79-11.27,19.74-16.24,12.46-8.96,26.77-14.76,41.73-18.58,6.95,9.17,12.79,19.28,17.23,30.14Z"/><path class="cls-2" d="M285.54,59.9c-5.88,5.18-12.87,9.29-19.69,13.28-15.42,8.92-31,17.84-47.9,23.35-8.31,2.71-16.9,4.52-25.61,5.92-11.59-12.42-25.04-22.57-39.59-30.22-1.89-.99-4.23,.12-4.69,2.22-2.34,10.81-3.54,22-3.41,33.26-20.68,2.38-40.7,6.25-58.51,16.86-10.03,5.92-18.71,13.77-27.05,22,.12-1.69,.29-3.41,.45-5.1,.16-1.69,.41-3.37,.66-5.02,.21-1.44,.41-2.84,.7-4.23,.25-1.36,.49-2.67,.78-3.99,.37-1.81,.82-3.62,1.27-5.43,.41-1.6,.82-3.17,1.32-4.73,.53-1.97,1.19-3.91,1.85-5.84,.53-1.52,1.07-3,1.64-4.48,.37-.95,.74-1.89,1.15-2.8,.37-.99,.78-1.93,1.23-2.88,.62-1.44,1.27-2.84,1.97-4.23,.45-.95,.9-1.85,1.36-2.8,.45-.9,.95-1.81,1.48-2.71,.66-1.19,1.32-2.38,2.01-3.58,.16-.33,.33-.62,.53-.9,.66-1.19,1.4-2.34,2.14-3.49,1.48-2.34,3.04-4.6,4.65-6.83,.86-1.19,1.77-2.38,2.67-3.54,5.14-2.34,10.57-3.86,16.08-5.14,33.39-7.69,68.58-5.26,101.76-13.86,14.39-3.7,29.36-10.44,36.47-23.52,.16,.04,.29,.12,.45,.21,1.6,.62,3.21,1.27,4.77,1.97,.49,.21,.99,.41,1.48,.66,1.73,.78,3.45,1.6,5.18,2.51,1.73,.86,3.45,1.77,5.14,2.75,.86,.49,1.73,.99,2.59,1.56,1.48,.78,2.92,1.69,4.36,2.63,1.69,1.07,3.33,2.22,4.97,3.37,1.27,.9,2.51,1.85,3.74,2.8,.74,.53,1.44,1.11,2.14,1.69,1.77,1.36,3.49,2.8,5.14,4.32,1.48,1.27,2.92,2.59,4.32,3.95Z"/><path class="cls-4" d="M156.73,229.91c1.77,5.06,3.91,9.42,6.08,13.12-11.76,4.69-23.48,9.37-34.58,15.38-4.32,2.34-8.55,4.85-12.95,7.07-1.93-1.36-3.86-2.8-5.71-4.28-.08-.08-.21-.16-.29-.21-1.77-1.44-3.49-2.88-5.18-4.4-1.77-1.52-3.49-3.12-5.18-4.77-.04-.04-.08-.08-.12-.12-1.64-1.64-3.29-3.37-4.89-5.1,9.42-1.44,18.83-2.67,28.08-4.85,11.92-2.75,23.52-7.03,34.74-11.84Z"/><path class="cls-4" d="M203.31,226.95c0,.12,.04,.29,.08,.41-9.99,3.62-19.86,7.44-29.73,11.35,1.77-6.37,3.58-12.75,5.39-19.16,3.41-1.69,6.78-3.45,10.16-5.26,4.4,4.56,9.13,8.8,14.1,12.66Z"/><path class="cls-4" d="M326.45,156.19c0,1.81-.04,3.66-.12,5.43-.12,3.62-.41,7.2-.86,10.73-.62,5.26-1.56,10.44-2.8,15.54-.82,3.37-1.81,6.7-2.88,9.99-7.48,2.92-15.09,5.51-22.9,7.28-9.62,2.18-19.37,3.17-29.07,4.69-10.44,1.64-20.68,3.99-30.84,6.78-.21-.16-.45-.29-.7-.37l-.86-1.97c-.37-.66-.7-1.32-1.19-1.77,.25-7.57-.04-15.21-1.03-22.9-.33-2.51,2.3-4.36,4.61-3.33,10.65,4.73,21.26,9.54,31.86,14.31,2.55,1.15,5.22-1.19,4.48-3.86-2.14-7.61-6.25-17.68-14.47-27.34,4.73-3,9.54-5.92,14.43-8.63,12.95-7.2,26.72-13.2,41.2-16.61,3.25-.78,6.78-1.6,10.36-2.14,.12,1.15,.25,2.34,.33,3.49,.12,1.19,.21,2.38,.25,3.54,.12,2.38,.21,4.77,.21,7.15Z"/><path class="cls-1" d="M241.27,31.47c-7.12,13.07-22.09,19.82-36.49,23.53-33.17,8.59-68.36,6.18-101.76,13.86-5.5,1.28-10.94,2.81-16.08,5.13,24.47-31.44,62.66-51.66,105.61-51.66,17.18,0,33.6,3.23,48.71,9.13Z"/></g><path class="cls-3" d="M361.18,71.6c-13.75-.4-33.99,3.18-57.78,9.55,2.27,3.29,4.37,6.72,6.29,10.24,2.89-.11,5.44-.03,7.66,.28,12.16,1.67,12.13,9.13,1.59,20.24-4.82,5.1-11.91,11-21.04,17.49-20.73,14.69-52.11,32.35-92.14,50.61-10.21,4.65-20.02,8.93-29.49,12.82h-.03c-43.32,17.86-78.42,27.9-99.8,30-17.46,1.67-25.74-1.9-21.83-10.86,1.64-3.77,5.44-8.28,11-13.33-1.11-3.23-2.07-6.55-2.89-9.89-24.78,16.16-43.15,31.22-50.41,42.58-14.49,22.62,15.91,26.82,76.86,9.89t.06-.03c33.68-9.36,76.66-25.15,126.53-47.83,9.13-4.17,17.95-8.28,26.34-12.33,.03,0,.03-.03,.06-.03,25.18-12.16,47.09-23.87,65.58-34.82,6.07-3.6,11.77-7.09,17.1-10.52,0,0,.03-.03,.06-.03,57.7-36.97,71.9-63,36.29-64.05Z"/><circle class="cls-2" cx="167.45" cy="111.27" r="9.85"/><g><path class="cls-6" d="M36.22,320.4c.89-2.12,2.47-2.81,4-2.81,1.92,0,3.75,1.23,3.75,3.4v35.85h-5.08v-29.54l-11.64,27.56c-.94,2.27-1.82,2.81-3.16,2.81s-2.22-.59-3.16-2.81l-11.69-27.56v29.54H4.22v-35.7c0-2.32,1.73-3.55,3.75-3.55,1.48,0,3.11,.74,4,2.86l12.13,28.7,12.13-28.75Z"/><path class="cls-6" d="M55.92,356.84h-5.03v-38.46h5.03v38.46Z"/><path class="cls-6" d="M80.04,334.8c4.73,0,7.94,2.37,7.94,7.35v7.54c0,4.98-3.2,7.15-7.94,7.15h-17.9v-4.83h16.37c2.81,0,4.44-1.18,4.44-4.34v-3.7c0-3.16-1.63-4.29-4.44-4.29h-8.73c-4.73,0-7.94-2.42-7.94-7.4v-6.71c0-4.98,3.2-7.2,7.94-7.2h17.9v4.88h-16.37c-2.81,0-4.44,1.13-4.44,4.29v2.96c0,3.11,1.63,4.29,4.44,4.29h8.73Z"/><path class="cls-6" d="M111.12,334.8c4.73,0,7.94,2.37,7.94,7.35v7.54c0,4.98-3.2,7.15-7.94,7.15h-17.9v-4.83h16.37c2.81,0,4.44-1.18,4.44-4.34v-3.7c0-3.16-1.63-4.29-4.44-4.29h-8.73c-4.73,0-7.94-2.42-7.94-7.4v-6.71c0-4.98,3.2-7.2,7.94-7.2h17.9v4.88h-16.37c-2.81,0-4.44,1.13-4.44,4.29v2.96c0,3.11,1.63,4.29,4.44,4.29h8.73Z"/><path class="cls-6" d="M130.02,356.84h-5.03v-38.46h5.03v38.46Z"/><path class="cls-6" d="M164.8,349.69c0,4.98-3.26,7.15-7.99,7.15h-12.43c-4.73,0-7.94-2.37-7.94-7.35v-23.72c0-4.98,3.2-7.4,7.94-7.4h12.43c4.73,0,7.99,2.42,7.99,7.4v23.91Zm-23.32-2.02c0,3.16,1.63,4.34,4.63,4.34h9.17c2.81,0,4.44-1.18,4.44-4.34v-20.12c0-3.16-1.63-4.29-4.44-4.29h-9.17c-3.01,0-4.63,1.13-4.63,4.29v20.12Z"/><path class="cls-6" d="M199.57,318.37v35.46c0,2.56-.89,3.85-2.96,3.85-1.09,0-2.27-.4-4.24-3.55l-16.12-25.64v28.35h-5.03v-35.7c0-2.32,.98-3.55,2.76-3.55,1.04,0,2.02,.44,3.01,2.02l17.5,28.16v-29.39h5.08Z"/><path class="cls-6" d="M238.76,334.8c4.73,0,7.94,2.37,7.94,7.35v7.54c0,4.98-3.2,7.15-7.94,7.15h-17.9v-4.83h16.37c2.81,0,4.44-1.18,4.44-4.34v-3.7c0-3.16-1.63-4.29-4.44-4.29h-8.73c-4.73,0-7.94-2.42-7.94-7.4v-6.71c0-4.98,3.2-7.2,7.94-7.2h17.9v4.88h-16.37c-2.81,0-4.44,1.13-4.44,4.29v2.96c0,3.11,1.63,4.29,4.44,4.29h8.73Z"/><path class="cls-6" d="M280.78,335.04c0,4.29-1.73,8.09-7.94,8.09h-15.19v13.71h-5.03v-38.46h20.22c4.73,0,7.94,2.42,7.94,7.4v9.27Zm-23.13-11.78v14.99h13.61c2.81,0,4.49-1.13,4.49-4.29v-6.41c0-3.16-1.68-4.29-4.49-4.29h-13.61Z"/><path class="cls-6" d="M283.27,339.68h14.35v4.83h-14.35v-4.83Z"/><path class="cls-6" d="M300.58,356.84v-14c0-4.98,3.2-7.35,7.94-7.35h8.63c2.81,0,4.44-1.18,4.44-4.29v-3.65c0-3.16-1.63-4.29-4.44-4.29h-16.23v-4.88h17.75c4.73,0,7.94,2.22,7.94,7.2v7.4c0,4.98-3.21,7.4-7.94,7.4h-8.63c-2.81,0-4.44,1.13-4.44,4.29v7.35h20.81v4.83h-25.84Z"/><path class="cls-6" d="M354.55,356.84h-5.08v-11h-18.49c-2.22,0-3.7-.99-3.7-2.71,0-.49,.1-1.04,.49-1.78l12.52-22.98h5.57l-12.43,22.59h16.03v-22.59h5.08v38.46Z"/><path class="cls-6" d="M358.01,318.37h23.77c2.27,0,3.3,.94,3.3,2.61,0,.94-.35,2.07-.98,3.45l-15.53,32.4h-5.57l16.08-33.58h-21.06v-4.88Z"/></g></svg>