<?xml version="1.0" encoding="UTF-8"?><svg id="Layer_1" xmlns="http://www.w3.org/2000/svg" viewBox="0 0 679.46 1001.74"><defs><style>.cls-1,.cls-2{fill:#fff;}.cls-2{stroke:#89b545;stroke-miterlimit:10;stroke-width:.5px;}.cls-3{fill:#e0ac6e;}.cls-4{fill:#fab05d;}.cls-5{fill:#f37f57;}.cls-6{fill:#efb882;}.cls-7{fill:#de7450;}.cls-8{fill:#f3cc94;}.cls-9{fill:#f79d59;}.cls-10{fill:#0d426a;}.cls-11{fill:#89b545;}.cls-12{fill:#231f20;}</style></defs><path class="cls-12" d="M544.91,393.09c-30.49,19.41-69.41,40.99-117.43,64.37-3.68,1.77-7.29,3.57-11.05,5.34l-.04,.04h-.07c-13.85,6.63-28.39,13.37-43.71,20.29-32.04,14.43-61.72,26.92-89.04,37.56h-.04c-71.95,28.06-127.52,43.45-166.63,48.87v39.48h144.83l-11.08,13.15,11.08,12.41H116.91v169.39h144.83v12.81H116.91v8.36c0,22.54,18.26,40.8,40.76,40.8H504.15c22.5,0,40.76-18.26,40.76-40.8v-8.36h-144.83v-12.81h144.83v-169.39h-144.83l11.08-12.41-11.08-13.15h144.83v-215.94Zm0,0c-30.49,19.41-69.41,40.99-117.43,64.37-3.68,1.77-7.29,3.57-11.05,5.34l-.04,.04h-.07c-13.85,6.63-28.39,13.37-43.71,20.29-32.04,14.43-61.72,26.92-89.04,37.56h-.04c-71.95,28.06-127.52,43.45-166.63,48.87v39.48h144.83l-11.08,13.15,11.08,12.41H116.91v169.39h144.83v12.81H116.91v8.36c0,22.54,18.26,40.8,40.76,40.8H504.15c22.5,0,40.76-18.26,40.76-40.8v-8.36h-144.83v-12.81h144.83v-169.39h-144.83l11.08-12.41-11.08-13.15h144.83v-215.94Zm0,0c-30.49,19.41-69.41,40.99-117.43,64.37-3.68,1.77-7.29,3.57-11.05,5.34l-.04,.04h-.07c-13.85,6.63-28.39,13.37-43.71,20.29-32.04,14.43-61.72,26.92-89.04,37.56h-.04c-71.95,28.06-127.52,43.45-166.63,48.87v39.48h144.83l-11.08,13.15,11.08,12.41H116.91v169.39h144.83v12.81H116.91v8.36c0,22.54,18.26,40.8,40.76,40.8H504.15c22.5,0,40.76-18.26,40.76-40.8v-8.36h-144.83v-12.81h144.83v-169.39h-144.83l11.08-12.41-11.08-13.15h144.83v-215.94Zm65.03-49.42c-5.74,5.74-12.67,11.82-20.77,18.26-6.92,5.52-14.69,11.31-23.38,17.31v445.9c0,33.99-27.65,61.64-61.64,61.64H157.67c-33.99,0-61.64-27.65-61.64-61.64v-253.53c-6.81,.33-12.96,.26-18.38-.18-8.91-.74-15.87-2.54-20.88-5.27v258.98c0,57.04,46.4,103.4,103.4,103.4H506.61c57.04,0,103.4-46.4,103.4-103.4V349.85c0-2.06-.04-4.12-.07-6.19ZM338.37,73.23c-1.66-.04-3.28-.04-4.93-.04-152.56,0-276.66,125.64-276.66,280.12v174.58c3.09-4.27,7-8.8,11.64-13.59,2.8-2.91,5.89-5.86,9.24-8.87,5.49-5.01,11.64-10.16,18.38-15.47,6.44-5.01,13.44-10.16,20.88-15.43,23.97-16.87,52.7-34.54,83.48-51.7,.15,1.14,.33,2.28,.52,3.42-33.47,19.19-63.04,38.63-84,56.01-8.14,6.74-14.99,13.15-20.25,19.11-.22,.22-.41,.48-.63,.7-16.57,19.07-16.17,32.22,0,37.45,5.12,1.66,11.86,2.54,20.14,2.54h.74c28.72-.18,75.82-10.53,139.6-33.66h.04c30.64-11.08,65.07-25.11,103.25-42.38,8.62-3.9,16.9-7.77,24.97-11.53l.04-.04h.04s.04-.04,.07-.04c18.71-8.84,36.01-17.38,51.92-25.67-.11,.59-.22,1.18-.33,1.77,.15-.59,.26-1.18,.37-1.77,48.68-25.37,84.47-48.13,108.04-67.17,8.47-6.85,15.39-13.22,20.77-19.04v-.04c20.77-22.61,18.45-37.27-4.97-41.06-5.86-.96-13.04-1.25-21.51-.77-1.62,.07-3.28,.18-4.97,.33-30.71,2.5-74.61,13.88-121.74,29.97-.37-.48-.74-.92-1.1-1.36-.41-.48-.77-.92-1.18-1.36,45.59-16.31,90-29.46,126.67-36.6,7.18-1.4,14.07-2.58,20.58-3.5,2.32-.33,4.57-.63,6.78-.88,5.93-.7,11.49-1.18,16.72-1.44,8.1-.41,15.32-.26,21.58,.41-28.65-119.86-136.21-210.74-264.18-213.03Zm99.24,314.51h-.07c-4.75,3.09-9.87,6.22-15.28,9.43,0,0-.04,0-.04,.04-16.57,9.76-36.16,20.25-58.7,31.15-.04,0-.04,.04-.07,.04s-.04,.04-.07,.04c-7.48,3.61-15.36,7.25-23.49,11.01-44.67,20.29-83.19,34.43-113.34,42.83t-.04,.04c-54.61,15.13-81.82,11.38-68.86-8.87,6.52-10.2,22.98-23.68,45.15-38.15t.04,.07c.26,1.14,.55,2.25,.88,3.35,.11,.44,.22,.88,.37,1.33,.41,1.4,.85,2.76,1.33,4.12-5.01,4.53-8.4,8.54-9.87,11.93-3.5,8.03,3.9,11.23,19.55,9.72,19.07-1.88,50.41-10.83,89.04-26.73,.11,0,.22-.07,.33-.11h.04c8.47-3.5,17.27-7.33,26.4-11.49,35.87-16.35,63.96-32.18,82.52-45.33,8.14-5.82,14.51-11.05,18.82-15.65l.04-.04c9.43-9.94,9.46-16.61-1.44-18.12-1.95-.26-4.27-.37-6.85-.26-1.03-1.84-2.1-3.68-3.24-5.49-.77-1.25-1.55-2.47-2.39-3.68,21.32-5.71,39.44-8.91,51.74-8.54,31.93,.92,19.19,24.23-32.48,57.37Zm81.9-79.98c8.62-.52,15.76-.22,21.39,.85,10.49,1.91,15.8,6.48,15.8,13.26,0,5.82-3.9,13.29-11.86,22.17v.04c-16.94,18.96-52.14,44.26-106.38,73.54,0,0-.04,0-.04,.04-24.19,13.04-52.14,26.84-83.96,41.28-7,3.13-13.85,6.19-20.55,9.13-.07,.04-.11,.04-.18,.07q-.07,.04-.15,.04s0,.04-.04,.04c-24.82,10.83-47.87,20.07-68.97,27.88h-.04c-.07,.04-.18,.07-.26,.07-5.74,2.14-11.34,4.16-16.79,6.04h-.04c-.26-.15-.48-.29-.7-.48,.18,.18,.41,.37,.63,.52-63.78,22.2-108.3,29.86-130.47,25.96-18.82-3.31-21.54-14.99-6.33-33.22,1.84-2.21,3.98-4.53,6.33-6.92,17.38-17.49,47.94-38.74,84.33-59.99,.26,1.55,.59,3.09,.96,4.6-28.21,17.6-49.86,34.36-58.77,47.02-17.93,25.41,16.75,29.79,87.9,8.1h.07c1.58-.48,3.2-.99,4.86-1.51l.04-.04c26.55-8.32,57.85-20.11,93.2-35.68,.04-.04,.11-.04,.15-.07h.04c4.53-1.99,9.17-4.05,13.85-6.19,38.26-17.38,69.97-33.95,94.97-48.94l.04-.04c70.33-42.24,87.24-71.99,46.14-71.88-16.2,.04-40.25,4.93-67.98,13.07-.66-.96-1.36-1.88-2.06-2.84-.18-.18-.33-.37-.48-.59-.11-.18-.26-.37-.44-.55,41.68-13.81,79.65-23.16,105.8-24.78Zm25.41,85.32c-30.49,19.41-69.41,40.99-117.43,64.37-3.68,1.77-7.29,3.57-11.05,5.34l-.04,.04h-.07c-13.85,6.63-28.39,13.37-43.71,20.29-32.04,14.43-61.72,26.92-89.04,37.56h-.04c-71.95,28.06-127.52,43.45-166.63,48.87v39.48h144.83l-11.08,13.15,11.08,12.41H116.91v169.39h144.83v12.81H116.91v8.36c0,22.54,18.26,40.8,40.76,40.8H504.15c22.5,0,40.76-18.26,40.76-40.8v-8.36h-144.83v-12.81h144.83v-169.39h-144.83l11.08-12.41-11.08-13.15h144.83v-215.94Zm0,0c-30.49,19.41-69.41,40.99-117.43,64.37-3.68,1.77-7.29,3.57-11.05,5.34l-.04,.04h-.07c-13.85,6.63-28.39,13.37-43.71,20.29-32.04,14.43-61.72,26.92-89.04,37.56h-.04c-71.95,28.06-127.52,43.45-166.63,48.87v39.48h144.83l-11.08,13.15,11.08,12.41H116.91v169.39h144.83v12.81H116.91v8.36c0,22.54,18.26,40.8,40.76,40.8H504.15c22.5,0,40.76-18.26,40.76-40.8v-8.36h-144.83v-12.81h144.83v-169.39h-144.83l11.08-12.41-11.08-13.15h144.83v-215.94Zm0,0c-30.49,19.41-69.41,40.99-117.43,64.37-3.68,1.77-7.29,3.57-11.05,5.34l-.04,.04h-.07c-13.85,6.63-28.39,13.37-43.71,20.29-32.04,14.43-61.72,26.92-89.04,37.56h-.04c-71.95,28.06-127.52,43.45-166.63,48.87v39.48h144.83l-11.08,13.15,11.08,12.41H116.91v169.39h144.83v12.81H116.91v8.36c0,22.54,18.26,40.8,40.76,40.8H504.15c22.5,0,40.76-18.26,40.76-40.8v-8.36h-144.83v-12.81h144.83v-169.39h-144.83l11.08-12.41-11.08-13.15h144.83v-215.94Zm0,0c-30.49,19.41-69.41,40.99-117.43,64.37-3.68,1.77-7.29,3.57-11.05,5.34l-.04,.04h-.07c-13.85,6.63-28.39,13.37-43.71,20.29-32.04,14.43-61.72,26.92-89.04,37.56h-.04c-71.95,28.06-127.52,43.45-166.63,48.87v39.48h144.83l-11.08,13.15,11.08,12.41H116.91v169.39h144.83v12.81H116.91v8.36c0,22.54,18.26,40.8,40.76,40.8H504.15c22.5,0,40.76-18.26,40.76-40.8v-8.36h-144.83v-12.81h144.83v-169.39h-144.83l11.08-12.41-11.08-13.15h144.83v-215.94Z"/><path class="cls-1" d="M544.91,393.09c-30.49,19.41-69.41,40.99-117.43,64.37-3.68,1.77-7.29,3.57-11.05,5.34l-.04,.04h-.07c-13.85,6.63-28.39,13.37-43.71,20.29-32.04,14.43-61.72,26.92-89.04,37.56h-.04c-71.95,28.06-127.52,43.45-166.63,48.87v39.48h144.83l-11.08,13.15,11.08,12.41H116.91v169.39h144.83v12.81H116.91v8.36c0,22.54,18.26,40.8,40.76,40.8H504.15c22.5,0,40.76-18.26,40.76-40.8v-8.36h-144.83v-12.81h144.83v-169.39h-144.83l11.08-12.41-11.08-13.15h144.83v-215.94Zm0,0c-30.49,19.41-69.41,40.99-117.43,64.37-3.68,1.77-7.29,3.57-11.05,5.34l-.04,.04h-.07c-13.85,6.63-28.39,13.37-43.71,20.29-32.04,14.43-61.72,26.92-89.04,37.56h-.04c-71.95,28.06-127.52,43.45-166.63,48.87v39.48h144.83l-11.08,13.15,11.08,12.41H116.91v169.39h144.83v12.81H116.91v8.36c0,22.54,18.26,40.8,40.76,40.8H504.15c22.5,0,40.76-18.26,40.76-40.8v-8.36h-144.83v-12.81h144.83v-169.39h-144.83l11.08-12.41-11.08-13.15h144.83v-215.94Zm0,0c-30.49,19.41-69.41,40.99-117.43,64.37-3.68,1.77-7.29,3.57-11.05,5.34l-.04,.04h-.07c-13.85,6.63-28.39,13.37-43.71,20.29-32.04,14.43-61.72,26.92-89.04,37.56h-.04c-71.95,28.06-127.52,43.45-166.63,48.87v39.48h144.83l-11.08,13.15,11.08,12.41H116.91v169.39h144.83v12.81H116.91v8.36c0,22.54,18.26,40.8,40.76,40.8H504.15c22.5,0,40.76-18.26,40.76-40.8v-8.36h-144.83v-12.81h144.83v-169.39h-144.83l11.08-12.41-11.08-13.15h144.83v-215.94Zm20.88-13.85v445.9c0,33.99-27.65,61.64-61.64,61.64H157.67c-33.99,0-61.64-27.65-61.64-61.64v-253.53c-6.81,.33-12.96,.26-18.38-.18v253.72c0,45.51,37.01,82.52,82.52,82.52H506.61c45.51,0,82.56-37.01,82.56-82.52V361.93c-6.92,5.52-14.69,11.31-23.38,17.31Zm-5.08-77.77c-5.86-.96-13.04-1.25-21.51-.77-1.62,.07-3.28,.18-4.97,.33-30.71,2.5-74.61,13.88-121.74,29.97-.37-.48-.74-.92-1.1-1.36-.41-.48-.77-.92-1.18-1.36,45.59-16.31,90-29.46,126.67-36.6,7.18-1.4,14.07-2.58,20.58-3.5,2.32-.33,4.57-.63,6.78-.88,5.93-.7,11.49-1.18,16.72-1.44-28.32-108.23-126.49-189.68-242.96-191.74-1.51-.04-3.02-.04-4.57-.04-141.04,0-255.78,116.29-255.78,259.24v152.12c5.49-5.01,11.64-10.16,18.38-15.47,6.44-5.01,13.44-10.16,20.88-15.43,23.97-16.87,52.7-34.54,83.48-51.7,.15,1.14,.33,2.28,.52,3.42-33.47,19.19-63.04,38.63-84,56.01-8.14,6.74-14.99,13.15-20.25,19.11-.22,.22-.41,.48-.63,.7-16.57,19.07-16.17,32.22,0,37.45,5.12,1.66,11.86,2.54,20.14,2.54h.74c28.72-.18,75.82-10.53,139.6-33.66h.04c30.64-11.08,65.07-25.11,103.25-42.38,8.62-3.9,16.9-7.77,24.97-11.53l.04-.04h.04s.04-.04,.07-.04c18.71-8.84,36.01-17.38,51.92-25.67-.11,.59-.22,1.18-.33,1.77,.15-.59,.26-1.18,.37-1.77,48.68-25.37,84.47-48.13,108.04-67.17,8.47-6.85,15.39-13.22,20.77-19.04v-.04c20.77-22.61,18.45-37.27-4.97-41.06Zm-123.1,86.28h-.07c-4.75,3.09-9.87,6.22-15.28,9.43,0,0-.04,0-.04,.04-16.57,9.76-36.16,20.25-58.7,31.15-.04,0-.04,.04-.07,.04s-.04,.04-.07,.04c-7.48,3.61-15.36,7.25-23.49,11.01-44.67,20.29-83.19,34.43-113.34,42.83t-.04,.04c-54.61,15.13-81.82,11.38-68.86-8.87,6.52-10.2,22.98-23.68,45.15-38.15t.04,.07c.26,1.14,.55,2.25,.88,3.35,.11,.44,.22,.88,.37,1.33,.41,1.4,.85,2.76,1.33,4.12-5.01,4.53-8.4,8.54-9.87,11.93-3.5,8.03,3.9,11.23,19.55,9.72,19.07-1.88,50.41-10.83,89.04-26.73,.11,0,.22-.07,.33-.11h.04c8.47-3.5,17.27-7.33,26.4-11.49,35.87-16.35,63.96-32.18,82.52-45.33,8.14-5.82,14.51-11.05,18.82-15.65l.04-.04c9.43-9.94,9.46-16.61-1.44-18.12-1.95-.26-4.27-.37-6.85-.26-1.03-1.84-2.1-3.68-3.24-5.49-.77-1.25-1.55-2.47-2.39-3.68,21.32-5.71,39.44-8.91,51.74-8.54,31.93,.92,19.19,24.23-32.48,57.37Zm107.23-43.71v.04c-16.94,18.96-52.14,44.26-106.38,73.54,0,0-.04,0-.04,.04-24.19,13.04-52.14,26.84-83.96,41.28-7,3.13-13.85,6.19-20.55,9.13-.07,.04-.11,.04-.18,.07q-.07,.04-.15,.04s0,.04-.04,.04c-24.82,10.83-47.87,20.07-68.97,27.88h-.04c-.07,.04-.18,.07-.26,.07-5.74,2.14-11.34,4.16-16.79,6.04h-.04c-.26-.15-.48-.29-.7-.48,.18,.18,.41,.37,.63,.52-63.78,22.2-108.3,29.86-130.47,25.96-18.82-3.31-21.54-14.99-6.33-33.22,1.84-2.21,3.98-4.53,6.33-6.92,17.38-17.49,47.94-38.74,84.33-59.99,.26,1.55,.59,3.09,.96,4.6-28.21,17.6-49.86,34.36-58.77,47.02-17.93,25.41,16.75,29.79,87.9,8.1h.07c1.58-.48,3.2-.99,4.86-1.51l.04-.04c26.55-8.32,57.85-20.11,93.2-35.68,.04-.04,.11-.04,.15-.07h.04c4.53-1.99,9.17-4.05,13.85-6.19,38.26-17.38,69.97-33.95,94.97-48.94l.04-.04c70.33-42.24,87.24-71.99,46.14-71.88-16.2,.04-40.25,4.93-67.98,13.07-.66-.96-1.36-1.88-2.06-2.84-.18-.18-.33-.37-.48-.59-.11-.18-.26-.37-.44-.55,41.68-13.81,79.65-23.16,105.8-24.78,8.62-.52,15.76-.22,21.39,.85,10.49,1.91,15.8,6.48,15.8,13.26,0,5.82-3.9,13.29-11.86,22.17Zm.07,49.05c-30.49,19.41-69.41,40.99-117.43,64.37-3.68,1.77-7.29,3.57-11.05,5.34l-.04,.04h-.07c-13.85,6.63-28.39,13.37-43.71,20.29-32.04,14.43-61.72,26.92-89.04,37.56h-.04c-71.95,28.06-127.52,43.45-166.63,48.87v39.48h144.83l-11.08,13.15,11.08,12.41H116.91v169.39h144.83v12.81H116.91v8.36c0,22.54,18.26,40.8,40.76,40.8H504.15c22.5,0,40.76-18.26,40.76-40.8v-8.36h-144.83v-12.81h144.83v-169.39h-144.83l11.08-12.41-11.08-13.15h144.83v-215.94Zm0,0c-30.49,19.41-69.41,40.99-117.43,64.37-3.68,1.77-7.29,3.57-11.05,5.34l-.04,.04h-.07c-13.85,6.63-28.39,13.37-43.71,20.29-32.04,14.43-61.72,26.92-89.04,37.56h-.04c-71.95,28.06-127.52,43.45-166.63,48.87v39.48h144.83l-11.08,13.15,11.08,12.41H116.91v169.39h144.83v12.81H116.91v8.36c0,22.54,18.26,40.8,40.76,40.8H504.15c22.5,0,40.76-18.26,40.76-40.8v-8.36h-144.83v-12.81h144.83v-169.39h-144.83l11.08-12.41-11.08-13.15h144.83v-215.94Zm0,0c-30.49,19.41-69.41,40.99-117.43,64.37-3.68,1.77-7.29,3.57-11.05,5.34l-.04,.04h-.07c-13.85,6.63-28.39,13.37-43.71,20.29-32.04,14.43-61.72,26.92-89.04,37.56h-.04c-71.95,28.06-127.52,43.45-166.63,48.87v39.48h144.83l-11.08,13.15,11.08,12.41H116.91v169.39h144.83v12.81H116.91v8.36c0,22.54,18.26,40.8,40.76,40.8H504.15c22.5,0,40.76-18.26,40.76-40.8v-8.36h-144.83v-12.81h144.83v-169.39h-144.83l11.08-12.41-11.08-13.15h144.83v-215.94Zm0,0c-30.49,19.41-69.41,40.99-117.43,64.37-3.68,1.77-7.29,3.57-11.05,5.34l-.04,.04h-.07c-13.85,6.63-28.39,13.37-43.71,20.29-32.04,14.43-61.72,26.92-89.04,37.56h-.04c-71.95,28.06-127.52,43.45-166.63,48.87v39.48h144.83l-11.08,13.15,11.08,12.41H116.91v169.39h144.83v12.81H116.91v8.36c0,22.54,18.26,40.8,40.76,40.8H504.15c22.5,0,40.76-18.26,40.76-40.8v-8.36h-144.83v-12.81h144.83v-169.39h-144.83l11.08-12.41-11.08-13.15h144.83v-215.94Z"/><path class="cls-11" d="M560.71,301.47c-5.86-.96-13.04-1.25-21.51-.77-1.62,.07-3.28,.18-4.97,.33-30.71,2.5-74.61,13.88-121.74,29.97-.37-.48-.74-.92-1.1-1.36-.41-.48-.77-.92-1.18-1.36,45.59-16.31,90-29.46,126.67-36.6,7.18-1.4,14.07-2.58,20.58-3.5-26.96-97.95-116.44-171.31-222.34-173.22-1.4,0-2.76-.04-4.16-.04-129.55,0-234.94,106.97-234.94,238.4v136.65c6.44-5.01,13.44-10.16,20.88-15.43,23.97-16.87,52.7-34.54,83.48-51.7,.15,1.14,.33,2.28,.52,3.42-33.47,19.19-63.04,38.63-84,56.01-8.14,6.74-14.99,13.15-20.25,19.11-.22,.22-.41,.48-.63,.7v37.45c5.12,1.66,11.86,2.54,20.14,2.54h.74c28.72-.18,75.82-10.53,139.6-33.66h.04c30.64-11.08,65.07-25.11,103.25-42.38,8.62-3.9,16.9-7.77,24.97-11.53l.04-.04h.04s.04-.04,.07-.04c18.71-8.84,36.01-17.38,51.92-25.67-.11,.59-.22,1.18-.33,1.77,.15-.59,.26-1.18,.37-1.77,48.68-25.37,84.47-48.13,108.04-67.17,8.47-6.85,15.39-13.22,20.77-19.04v-.04c-.44-14.03-2.14-27.73-4.97-41.06Zm-123.1,86.28h-.07c-4.75,3.09-9.87,6.22-15.28,9.43,0,0-.04,0-.04,.04-16.57,9.76-36.16,20.25-58.7,31.15-.04,0-.04,.04-.07,.04s-.04,.04-.07,.04c-7.48,3.61-15.36,7.25-23.49,11.01-44.67,20.29-83.19,34.43-113.34,42.83t-.04,.04c-54.61,15.13-81.82,11.38-68.86-8.87,6.52-10.2,22.98-23.68,45.15-38.15t.04,.07c.26,1.14,.55,2.25,.88,3.35,.11,.44,.22,.88,.37,1.33,.41,1.4,.85,2.76,1.33,4.12-5.01,4.53-8.4,8.54-9.87,11.93-3.5,8.03,3.9,11.23,19.55,9.72,19.07-1.88,50.41-10.83,89.04-26.73,.11,0,.22-.07,.33-.11h.04c8.47-3.5,17.27-7.33,26.4-11.49,35.87-16.35,63.96-32.18,82.52-45.33,8.14-5.82,14.51-11.05,18.82-15.65l.04-.04c9.43-9.94,9.46-16.61-1.44-18.12-1.95-.26-4.27-.37-6.85-.26-1.03-1.84-2.1-3.68-3.24-5.49-.77-1.25-1.55-2.47-2.39-3.68,21.32-5.71,39.44-8.91,51.74-8.54,31.93,.92,19.19,24.23-32.48,57.37Zm107.23-43.71v.04c-16.94,18.96-52.14,44.26-106.38,73.54,0,0-.04,0-.04,.04-24.19,13.04-52.14,26.84-83.96,41.28-7,3.13-13.85,6.19-20.55,9.13-.07,.04-.11,.04-.18,.07q-.07,.04-.15,.04s0,.04-.04,.04c-24.82,10.83-47.87,20.07-68.97,27.88h-.04c-.07,.04-.18,.07-.26,.07-5.74,2.14-11.34,4.16-16.79,6.04h-.04c-.26-.15-.48-.29-.7-.48,.18,.18,.41,.37,.63,.52-63.78,22.2-108.3,29.86-130.47,25.96-18.82-3.31-21.54-14.99-6.33-33.22,1.84-2.21,3.98-4.53,6.33-6.92,17.38-17.49,47.94-38.74,84.33-59.99,.26,1.55,.59,3.09,.96,4.6-28.21,17.6-49.86,34.36-58.77,47.02-17.93,25.41,16.75,29.79,87.9,8.1h.07c1.58-.48,3.2-.99,4.86-1.51l.04-.04c26.55-8.32,57.85-20.11,93.2-35.68,.04-.04,.11-.04,.15-.07h.04c4.53-1.99,9.17-4.05,13.85-6.19,38.26-17.38,69.97-33.95,94.97-48.94l.04-.04c70.33-42.24,87.24-71.99,46.14-71.88-16.2,.04-40.25,4.93-67.98,13.07-.66-.96-1.36-1.88-2.06-2.84-.18-.18-.33-.37-.48-.59-.11-.18-.26-.37-.44-.55,41.68-13.81,79.65-23.16,105.8-24.78,8.62-.52,15.76-.22,21.39,.85,10.49,1.91,15.8,6.48,15.8,13.26,0,5.82-3.9,13.29-11.86,22.17Zm.07,49.05c-30.49,19.41-69.41,40.99-117.43,64.37-3.68,1.77-7.29,3.57-11.05,5.34l-.04,.04h-.07c-13.85,6.63-28.39,13.37-43.71,20.29-32.04,14.43-61.72,26.92-89.04,37.56h-.04c-71.95,28.06-127.52,43.45-166.63,48.87v39.48h144.83l-11.08,13.15,11.08,12.41H116.91v169.39h144.83v12.81H116.91v8.36c0,22.54,18.26,40.8,40.76,40.8H504.15c22.5,0,40.76-18.26,40.76-40.8v-8.36h-144.83v-12.81h144.83v-169.39h-144.83l11.08-12.41-11.08-13.15h144.83v-215.94Z"/><path class="cls-10" d="M539.2,300.69c-1.62,.07-3.28,.18-4.97,.33-30.71,2.5-74.61,13.88-121.74,29.97-.37-.48-.74-.92-1.1-1.36-.41-.48-.77-.92-1.18-1.36,45.59-16.31,90-29.46,126.67-36.6-25.08-88.64-105.94-154.11-202.13-155.84-120.23-2.14-217.85,97.25-217.85,217.48v121.22c23.97-16.87,52.7-34.54,83.48-51.7,.15,1.14,.33,2.28,.52,3.42-33.47,19.19-63.04,38.63-84,56.01v5.78c17.38-17.49,47.94-38.74,84.33-59.99,.26,1.55,.59,3.09,.96,4.6-28.21,17.6-49.86,34.36-58.77,47.02-17.93,25.41,16.75,29.79,87.9,8.1h.07c1.58-.48,3.2-.99,4.86-1.51l.04-.04c26.55-8.32,57.85-20.11,93.2-35.68,.04-.04,.11-.04,.15-.07h.04c4.53-1.99,9.17-4.05,13.85-6.19,38.26-17.38,69.97-33.95,94.97-48.94l.04-.04c70.33-42.24,87.24-71.99,46.14-71.88-16.2,.04-40.25,4.93-67.98,13.07-.66-.96-1.36-1.88-2.06-2.84-.18-.18-.33-.37-.48-.59-.11-.18-.26-.37-.44-.55,41.68-13.81,79.65-23.16,105.8-24.78,8.62-.52,15.76-.22,21.39,.85-.48-2.65-1.07-5.3-1.69-7.92Zm-69.12,29.68c31.93,.92,19.19,24.23-32.48,57.37h-.07c-4.75,3.09-9.87,6.22-15.28,9.43,0,0-.04,0-.04,.04-16.57,9.76-36.16,20.25-58.7,31.15-.04,0-.04,.04-.07,.04s-.04,.04-.07,.04c-7.48,3.61-15.36,7.25-23.49,11.01-44.67,20.29-83.19,34.43-113.34,42.83t-.04,.04c-54.61,15.13-81.82,11.38-68.86-8.87,6.52-10.2,22.98-23.68,45.15-38.15t.04,.07c.26,1.14,.55,2.25,.88,3.35,.11,.44,.22,.88,.37,1.33,.41,1.4,.85,2.76,1.33,4.12-5.01,4.53-8.4,8.54-9.87,11.93-3.5,8.03,3.9,11.23,19.55,9.72,19.07-1.88,50.41-10.83,89.04-26.73,.11,0,.22-.07,.33-.11h.04c8.47-3.5,17.27-7.33,26.4-11.49,35.87-16.35,63.96-32.18,82.52-45.33,8.14-5.82,14.51-11.05,18.82-15.65l.04-.04c9.43-9.94,9.46-16.61-1.44-18.12-1.95-.26-4.27-.37-6.85-.26-1.03-1.84-2.1-3.68-3.24-5.49-.77-1.25-1.55-2.47-2.39-3.68,21.32-5.71,39.44-8.91,51.74-8.54Zm74.75,13.7c-16.94,18.96-52.14,44.26-106.38,73.54,0,0-.04,0-.04,.04-24.19,13.04-52.14,26.84-83.96,41.28-7,3.13-13.85,6.19-20.55,9.13-.07,.04-.11,.04-.18,.07q-.07,.04-.15,.04s0,.04-.04,.04c-24.82,10.83-47.87,20.07-68.97,27.88h-.04c-.07,.04-.18,.07-.26,.07-5.74,2.14-11.34,4.16-16.79,6.04h-.04c-.26-.15-.48-.29-.7-.48,.18,.18,.41,.37,.63,.52-63.78,22.2-108.3,29.86-130.47,25.96v13.88c28.72-.18,75.82-10.53,139.6-33.66h.04c30.64-11.08,65.07-25.11,103.25-42.38,8.62-3.9,16.9-7.77,24.97-11.53l.04-.04h.04s.04-.04,.07-.04c18.71-8.84,36.01-17.38,51.92-25.67-.11,.59-.22,1.18-.33,1.77,.15-.59,.26-1.18,.37-1.77,48.68-25.37,84.47-48.13,108.04-67.17v-11.78c0-1.91-.04-3.83-.07-5.74Zm.07,49.01c-30.49,19.41-69.41,40.99-117.43,64.37-3.68,1.77-7.29,3.57-11.05,5.34l-.04,.04h-.07c-13.85,6.63-28.39,13.37-43.71,20.29-32.04,14.43-61.72,26.92-89.04,37.56h-.04c-71.95,28.06-127.52,43.45-166.63,48.87v39.48h144.83l-11.08,13.15,11.08,12.41H116.91v169.39h144.83v12.81H116.91v8.36c0,22.54,18.26,40.8,40.76,40.8H504.15c22.5,0,40.76-18.26,40.76-40.8v-8.36h-144.83v-12.81h144.83v-169.39h-144.83l11.08-12.41-11.08-13.15h144.83v-215.94Z"/><g><path class="cls-9" d="M432.23,366.5c-4.31,4.6-10.68,9.83-18.82,15.65-18.56,13.15-46.66,28.98-82.52,45.33-9.13,4.16-17.93,7.99-26.4,11.49h-.04c-.11,.04-.22,.11-.33,.11-38.63,15.91-69.97,24.86-89.04,26.73-1.4-2.43-2.72-4.93-3.94-7.48-2.21-4.57-4.16-9.32-5.74-14.18-.48-1.36-.92-2.72-1.33-4.12-.15-.44-.26-.88-.37-1.33-.33-1.1-.63-2.21-.88-3.35t-.04-.07c-.22-.88-.44-1.73-.59-2.61-.37-1.51-.7-3.06-.96-4.6-.15-.59-.26-1.18-.33-1.8-.18-1.14-.37-2.28-.52-3.42-.07-.37-.15-.74-.18-1.1-.66-5.08-.99-10.27-.99-15.61,0-2.87,.11-5.78,.33-8.62,.11-1.51,.26-3.06,.41-4.53,.18-1.51,.37-3.02,.59-4.53,.11-.81,.22-1.62,.37-2.43,.11-.63,.22-1.25,.33-1.84,.29-1.55,.59-3.06,.96-4.57,.22-1.03,.44-2.06,.74-3.06,0-.11,.04-.22,.07-.29,.41-1.62,.85-3.2,1.33-4.79,.18-.66,.41-1.33,.63-1.99,.52-1.62,1.07-3.24,1.66-4.79,.55-1.62,1.18-3.17,1.84-4.71,.37-.92,.77-1.84,1.18-2.72,.11-.33,.26-.63,.41-.92,.77-1.66,1.58-3.28,2.39-4.93,.29-.59,.63-1.18,.96-1.8,.44-.88,.96-1.8,1.47-2.69,.99-1.73,2.03-3.42,3.09-5.12,.41-.66,.81-1.29,1.29-1.95,.41-.63,.85-1.29,1.29-1.91v-.04c.63-.92,1.29-1.8,1.95-2.69,.66-.92,1.33-1.8,2.03-2.69l.04-.04c1.88-2.43,3.87-4.79,5.97-7.07,.92-.99,1.84-1.99,2.76-2.95,1.25-1.29,2.54-2.54,3.83-3.72,1.1-1.07,2.28-2.14,3.46-3.17,.15-.15,.33-.26,.48-.41,.7-.59,1.36-1.18,2.1-1.73,1.69-1.44,3.46-2.8,5.27-4.12,1.8-1.33,3.61-2.58,5.52-3.79,.18-.11,.37-.22,.55-.37,.48-.29,.96-.63,1.44-.92,.29-.18,.55-.33,.85-.48,.96-.59,1.91-1.18,2.91-1.73,.52-.29,1.03-.59,1.55-.88,.48-.26,.92-.52,1.4-.74,.96-.52,1.99-1.03,2.98-1.55,.33-.18,.7-.37,1.07-.55,1.18-.55,2.32-1.14,3.5-1.62,1.55-.7,3.09-1.36,4.71-1.99,.55-.26,1.1-.48,1.69-.7,.41-.15,.77-.29,1.18-.41,.15-.07,.33-.15,.52-.18,.92-.33,1.88-.66,2.84-.99,.33-.11,.63-.22,.96-.29,1.03-.37,2.03-.66,3.06-.99,.63-.15,1.29-.33,1.91-.52,1.47-.41,2.95-.81,4.46-1.14,2.14-.52,4.23-.96,6.41-1.33,.41-.11,.81-.18,1.25-.22,.37-.07,.77-.15,1.14-.18,1.51-.22,3.06-.44,4.57-.63,.52-.07,1.03-.15,1.55-.18,.66-.07,1.29-.15,1.91-.18,2.21-.18,4.46-.33,6.7-.41,.52-.04,1.03-.04,1.55-.04,.85-.04,1.66-.04,2.5-.04,1.91,0,3.83,.04,5.74,.15,2.28,.11,4.53,.26,6.78,.48,1.07,.15,2.14,.26,3.17,.37,.11,.04,.26,.04,.41,.07,.04,0,.11,0,.18,.04,.37,.07,.77,.11,1.14,.15,1.4,.18,2.8,.44,4.2,.7s2.76,.55,4.16,.85c.96,.18,1.95,.44,2.91,.66,.41,.07,.81,.18,1.22,.29,.59,.15,1.14,.29,1.69,.44,.48,.15,.92,.29,1.4,.41,1.84,.52,3.65,1.07,5.45,1.69,.74,.26,1.47,.52,2.17,.77,1.03,.33,2.03,.7,3.02,1.1,1.73,.7,3.46,1.4,5.19,2.17,1.58,.74,3.17,1.47,4.75,2.28,.66,.29,1.25,.63,1.88,.96,.18,.07,.33,.18,.52,.26,.85,.44,1.69,.92,2.5,1.36,.44,.22,.85,.48,1.25,.74,1.73,.96,3.42,1.99,5.08,3.06,1.47,.96,2.95,1.95,4.42,2.98,.92,.66,1.84,1.36,2.76,2.06,.96,.7,1.91,1.44,2.84,2.17,.74,.59,1.47,1.18,2.17,1.77,.33,.29,.63,.59,.96,.88,.33,.22,.66,.52,.96,.81,.15,.11,.29,.22,.41,.37,1.33,1.14,2.65,2.36,3.94,3.61,2.76,2.65,5.41,5.41,7.88,8.36,.41,.44,.77,.88,1.18,1.36,.37,.44,.74,.88,1.1,1.36,.44,.52,.85,1.03,1.22,1.55,.18,.18,.33,.37,.44,.55,.15,.22,.29,.41,.48,.59,.7,.96,1.4,1.88,2.06,2.84,.59,.77,1.14,1.58,1.66,2.39,.85,1.22,1.62,2.43,2.39,3.68,1.14,1.8,2.21,3.65,3.24,5.49,2.28,4.09,4.31,8.29,6.08,12.63,.77,1.91,1.51,3.83,2.17,5.78Z"/><path class="cls-9" d="M438.53,395.33l-.04,.04c-25,14.99-56.71,31.56-94.97,48.94-4.68,2.14-9.32,4.2-13.85,6.19h-.04s-.11,.04-.15,.07c-35.35,15.58-66.65,27.36-93.2,35.68l-.04,.04c-1.66,.52-3.28,1.03-4.86,1.51h-.07c-.22-.22-.44-.44-.59-.7-1.44-1.55-2.8-3.13-4.12-4.71-.04-.04-.07-.07-.07-.11,30.16-8.4,68.68-22.54,113.34-42.83,8.14-3.76,16.02-7.4,23.49-11.01,.04,0,.04-.04,.07-.04s.04-.04,.07-.04c22.54-10.9,42.13-21.39,58.7-31.15,0-.04,.04-.04,.04-.04,5.41-3.2,10.53-6.33,15.28-9.43h.04c.07,.48,.15,.92,.18,1.4,.07,.48,.15,.96,.22,1.44,.11,.92,.22,1.88,.33,2.84,.07,.63,.15,1.29,.22,1.91Z"/><path class="cls-9" d="M427.48,457.45c-.41,.85-.81,1.69-1.25,2.54-.15,.33-.29,.66-.48,.99h-.04c-.15,.33-.33,.66-.52,1.03-.15,.29-.29,.59-.48,.88-.55,1.07-1.14,2.14-1.77,3.17-.55,.99-1.14,1.95-1.73,2.91-2.87,4.71-6.11,9.21-9.61,13.44-1.22,1.47-2.47,2.95-3.76,4.35-.04,.04-.11,.11-.15,.15-.55,.63-1.14,1.22-1.73,1.84-.85,.92-1.73,1.84-2.65,2.72-.33,.33-.7,.66-1.03,1.03-1.22,1.14-2.43,2.28-3.72,3.42-1.66,1.47-3.39,2.87-5.12,4.27-.7,.55-1.4,1.1-2.14,1.66-2.87,2.17-5.89,4.23-8.95,6.15-1.44,.88-2.91,1.73-4.38,2.58-1.1,.63-2.25,1.25-3.39,1.84-1.22,.66-2.43,1.25-3.68,1.84-.81,.41-1.66,.81-2.5,1.18-1.4,.63-2.8,1.25-4.2,1.8-2.54,1.07-5.12,1.99-7.73,2.84-9.06,2.98-18.63,4.93-28.54,5.63-1.33,.11-2.69,.18-4.01,.22-1.62,.07-3.24,.11-4.86,.11-1.4,0-2.76-.04-4.12-.07s-2.72-.11-4.09-.22c-1.36-.07-2.73-.18-4.05-.33-1.36-.15-2.69-.29-4.01-.48-1.84-.26-3.68-.55-5.49-.88-.92-.15-1.8-.37-2.72-.55-.88-.18-1.8-.37-2.69-.59-.96-.22-1.91-.44-2.87-.7-1.84-.48-3.65-.99-5.45-1.55,27.32-10.64,57-23.13,89.04-37.56,15.32-6.92,29.86-13.66,43.71-20.29h.07l.04-.04c3.76-1.77,7.36-3.57,11.05-5.34Z"/><path class="cls-9" d="M438.45,417.61c-.04,.33-.04,.63-.11,.96-.04,.66-.11,1.33-.22,2.03-.15,1.25-.29,2.54-.52,3.79-.04,.33-.11,.66-.18,1.03-.11,.74-.22,1.47-.37,2.17,0,.22-.07,.41-.11,.59,0,.18-.04,.37-.07,.59-.11,.59-.22,1.18-.37,1.77,.11-.59,.22-1.18,.33-1.77-15.91,8.29-33.22,16.83-51.92,25.67-.04,0-.04,.04-.07,.04h-.04l-.04,.04c-8.06,3.76-16.35,7.62-24.97,11.53-38.19,17.27-72.62,31.3-103.25,42.38h-.04c-1.14-.7-2.21-1.4-3.31-2.14-1.03-.66-2.03-1.33-3.02-2.06-.11-.04-.18-.11-.29-.18-.07-.07-.18-.11-.26-.18-.41-.29-.81-.55-1.18-.85-.33-.26-.7-.52-1.03-.77h-.04c-.22-.15-.44-.33-.63-.52,.22,.18,.44,.33,.7,.48h.04c5.45-1.88,11.05-3.9,16.79-6.04,.07,0,.18-.04,.26-.07h.04c21.1-7.81,44.15-17.05,68.97-27.88,.04,0,.04-.04,.04-.04q.07,0,.15-.04c.07-.04,.11-.04,.18-.07,6.7-2.95,13.55-6,20.55-9.13,31.82-14.43,59.77-28.24,83.96-41.28,0-.04,.04-.04,.04-.04Z"/><path class="cls-5" d="M402.35,319.9c-5.26,4.65-11.5,8.33-17.62,11.88-13.81,7.97-27.75,16-42.91,20.9-38.55,12.49-83.26,4.37-118.05,25.11-8.96,5.33-16.76,12.37-24.22,19.71,1.73-24.43,10.77-46.8,24.96-64.98,21.91-28.16,56.12-46.27,94.59-46.27,15.39,0,30.09,2.89,43.63,8.18,14.88,5.84,28.34,14.55,39.64,25.47Z"/><path class="cls-5" d="M413.41,382.15c-18.56,13.15-46.66,28.98-82.52,45.33-9.13,4.16-17.93,7.99-26.4,11.49h-.04c-.11,.04-.22,.11-.33,.11,14.77-8.69,29.02-18.34,42.61-28.83,7.36-5.67,14.55-11.56,22.68-15.98,13.55-7.29,28.69-9.94,44-12.12Z"/><path class="cls-5" d="M438.49,395.37c-25,14.99-56.71,31.56-94.97,48.94-4.68,2.14-9.32,4.2-13.85,6.19h-.04s-.11,.04-.15,.07c-35.35,15.58-66.65,27.36-93.2,35.68l-.04,.04c-1.66,.52-3.28,1.03-4.86,1.51-.22-.22-.44-.48-.66-.7-1.44-1.55-2.8-3.13-4.12-4.71-.04-.04-.07-.07-.07-.11,30.16-8.4,68.68-22.54,113.34-42.83,8.14-3.76,16.02-7.4,23.49-11.01,.04,0,.04-.04,.07-.04s.04-.04,.07-.04c22.54-10.9,42.13-21.39,58.7-31.15,0-.04,.04-.04,.04-.04,5.41-3.2,10.53-6.33,15.28-9.43,.11,.48,.18,.96,.22,1.4,.07,.48,.15,.96,.22,1.44,.11,.92,.22,1.88,.33,2.84,.07,.66,.15,1.29,.18,1.95Z"/><path class="cls-5" d="M427.48,457.45c-.41,.85-.81,1.69-1.25,2.54-.15,.33-.29,.66-.48,.99-.18,.33-.37,.7-.55,1.03-.15,.29-.29,.59-.48,.88-.55,1.07-1.14,2.14-1.77,3.17-.55,.99-1.14,1.95-1.73,2.91-2.87,4.71-6.11,9.21-9.61,13.44-1.22,1.47-2.47,2.95-3.76,4.35-.04,.04-.11,.11-.15,.15-.55,.63-1.14,1.22-1.73,1.84-.85,.92-1.73,1.84-2.65,2.72-.33,.33-.7,.66-1.03,1.03-1.22,1.14-2.43,2.28-3.72,3.42-1.66,1.47-3.39,2.87-5.12,4.27-.7,.55-1.4,1.1-2.14,1.66-2.87,2.17-5.89,4.23-8.95,6.15-1.44,.88-2.91,1.73-4.38,2.58-1.1,.63-2.25,1.25-3.39,1.84-1.22,.66-2.43,1.25-3.68,1.84-.81,.41-1.66,.81-2.5,1.18-1.4,.63-2.8,1.25-4.2,1.8-2.54,1.03-5.12,1.99-7.73,2.84-9.06,2.98-18.63,4.93-28.54,5.63-1.33,.11-2.69,.18-4.01,.22-1.62,.07-3.24,.11-4.86,.11-1.4,0-2.76-.04-4.12-.07s-2.72-.11-4.09-.22c-1.36-.07-2.73-.18-4.05-.33-1.36-.15-2.69-.29-4.01-.48-1.84-.26-3.68-.55-5.49-.88-.92-.15-1.8-.37-2.72-.55-.88-.18-1.8-.37-2.69-.59-.96-.22-1.91-.44-2.87-.7-1.84-.48-3.65-.99-5.45-1.55,27.32-10.64,57-23.13,89.04-37.56,15.32-6.92,29.86-13.66,43.71-20.29h.07l.04-.04c3.76-1.77,7.36-3.57,11.05-5.34Z"/><path class="cls-5" d="M438.42,417.65c-.04,.29-.04,.63-.07,.92-.04,.66-.11,1.33-.22,2.03-.15,1.25-.29,2.54-.52,3.79-.04,.33-.11,.66-.18,1.03-.11,.74-.22,1.47-.37,2.17,0,.22-.07,.41-.11,.59-.04,.22-.07,.41-.11,.59-15.91,8.29-33.22,16.83-51.92,25.67-.04,0-.04,.04-.07,.04h-.04l-.04,.04c-8.06,3.76-16.35,7.62-24.97,11.53-38.19,17.27-72.62,31.3-103.25,42.38h-.04c-1.14-.7-2.21-1.4-3.31-2.14-1.03-.66-2.03-1.33-3.02-2.06-.11-.04-.18-.11-.29-.18-.07-.07-.18-.11-.26-.18-.41-.29-.81-.55-1.18-.85-.33-.26-.63-.52-.96-.81,5.45-1.88,11.05-3.9,16.79-6.04,.07,0,.18-.04,.26-.07h.04c21.1-7.81,44.15-17.05,68.97-27.88,.04,0,.04-.04,.04-.04q.07,0,.15-.04c.07-.04,.11-.04,.18-.07,6.7-2.95,13.55-6,20.55-9.13,31.82-14.43,59.77-28.24,83.96-41.28Z"/><path class="cls-9" d="M425.75,460.99c-.18,.33-.37,.7-.55,1.03-.15,.29-.29,.59-.48,.88-.55,1.07-1.14,2.14-1.77,3.17-.55,.99-1.14,1.95-1.73,2.91-2.87,4.71-6.11,9.21-9.61,13.44-1.22,1.47-2.47,2.95-3.76,4.35-.04,.04-.11,.11-.15,.15-.55,.63-1.14,1.22-1.73,1.84-.85,.92-1.73,1.84-2.65,2.72-.33,.33-.7,.66-1.03,1.03-1.22,1.14-2.43,2.28-3.72,3.42-1.66,1.47-3.39,2.87-5.12,4.27-.7,.55-1.4,1.1-2.14,1.66-2.87,2.17-5.89,4.23-8.95,6.15-1.44,.88-2.91,1.73-4.38,2.58-1.1,.63-2.25,1.25-3.39,1.84-1.22,.66-2.43,1.25-3.68,1.84-.81,.41-1.66,.81-2.5,1.18-1.4,.63-2.8,1.25-4.2,1.8-2.54,1.03-5.12,1.99-7.73,2.84-9.06,2.98-18.63,4.93-28.54,5.63-1.33,.11-2.69,.18-4.01,.22-1.62,.07-3.24,.11-4.86,.11-1.4,0-2.76-.04-4.12-.07s-2.72-.11-4.09-.22c-1.36-.07-2.73-.18-4.05-.33-1.36-.15-2.69-.29-4.01-.48-1.84-.26-3.68-.55-5.49-.88-.92-.15-1.8-.37-2.72-.55-.88-.18-1.8-.37-2.69-.59-.96-.22-1.91-.44-2.87-.7-1.84-.48-3.65-.99-5.45-1.55,27.32-10.64,57-23.13,89.04-37.56,15.32-6.92,29.86-13.66,43.71-20.29h.07l.04-.04c3.13-.55,6.22-1.14,9.28-1.8h.04Z"/><path class="cls-4" d="M430.06,360.72c-.18,.07-.41,.18-.59,.26-4.38,1.84-9.17,2.47-13.85,3.39-41.1,8.06-74.61,36.64-110.84,57.67-29.09,16.87-60.8,29.16-93.64,36.31-2.21-4.57-4.16-9.32-5.74-14.18-.48-1.36-.92-2.72-1.33-4.12-.15-.44-.26-.88-.37-1.33-.33-1.1-.63-2.21-.88-3.35t-.04-.07c-.22-.88-.44-1.73-.59-2.61-.37-1.51-.7-3.06-.96-4.6-.15-.59-.26-1.18-.33-1.8-.18-1.14-.37-2.28-.52-3.42-.07-.37-.15-.74-.18-1.1,9.98,.33,20,.04,29.83-1.84,6.33-1.22,12.48-3.06,18.63-4.93,39.07-11.86,79.28-24.23,110.91-50.04,5.89-4.86,11.45-10.09,17.64-14.58,11.19-8.03,23.97-13.22,37.41-16.64,.7,.96,1.4,1.88,2.06,2.84,.59,.77,1.14,1.58,1.66,2.39,.85,1.22,1.62,2.43,2.39,3.68,1.14,1.8,2.21,3.65,3.24,5.49,2.28,4.09,4.31,8.29,6.08,12.63Z"/><path class="cls-4" d="M362.71,294.43c-6.37,11.71-19.78,17.75-32.68,21.08-29.71,7.69-61.22,5.54-91.14,12.42-4.93,1.14-9.8,2.51-14.4,4.6,21.91-28.16,56.12-46.27,94.59-46.27,15.39,0,30.09,2.89,43.63,8.18Z"/><path class="cls-7" d="M236.29,486.25l-.04,.04c-1.66,.52-3.28,1.03-4.86,1.51-.22-.22-.44-.48-.66-.7,1.84-.29,3.68-.55,5.56-.85Z"/><path class="cls-7" d="M264.28,496.16c-.96,.52-1.84,1.03-2.8,1.51-3.87,2.1-7.7,4.35-11.6,6.37-.07-.07-.18-.11-.26-.18-.41-.29-.81-.55-1.18-.85-.33-.26-.63-.52-.96-.81,5.45-1.88,11.05-3.9,16.79-6.04Z"/><path class="cls-7" d="M438.42,417.65c-.04,.29-.04,.63-.07,.92-.04,.66-.11,1.33-.22,2.03-.15,1.25-.29,2.54-.52,3.79-.04,.33-.11,.66-.18,1.03-.11,.74-.22,1.47-.37,2.17,0,.22-.07,.41-.11,.59-.04,.22-.07,.41-.11,.59-15.91,8.29-33.22,16.83-51.92,25.67-.04,0-.04,.04-.07,.04h-.04c-17.34,2.87-34.25,7.77-50.89,13.59,6.7-2.95,13.55-6,20.55-9.13,31.82-14.43,59.77-28.24,83.96-41.28Z"/><path class="cls-7" d="M438.49,395.37c-25,14.99-56.71,31.56-94.97,48.94-4.68,2.14-9.32,4.2-13.85,6.19,3.24-1.95,6.44-3.9,9.61-5.93,8.14-5.19,16.09-10.68,24.08-16.13,.04,0,.04-.04,.07-.04s.04-.04,.07-.04c22.54-10.9,42.13-21.39,58.7-31.15,0-.04,.04-.04,.04-.04,2.25-.7,4.49-1.29,6.78-1.84,2.91-.66,6.08-1.4,9.28-1.91,.07,.66,.15,1.29,.18,1.95Z"/></g><path class="cls-3" d="M436.83,428.77c-.11,.59-.22,1.18-.33,1.77,.15-.59,.26-1.18,.37-1.77h-.04Zm0,0c-.11,.59-.22,1.18-.33,1.77,.15-.59,.26-1.18,.37-1.77h-.04Zm0,0c-.11,.59-.22,1.18-.33,1.77,.15-.59,.26-1.18,.37-1.77h-.04Z"/><path class="cls-3" d="M632.44,306.62c0,9.46-7.25,21.95-22.5,37.04-5.74,5.74-12.67,11.82-20.77,18.26-6.92,5.52-14.69,11.31-23.38,17.31-6.44,4.49-13.4,9.1-20.88,13.85-30.49,19.41-69.41,40.99-117.43,64.37-3.68,1.77-7.29,3.57-11.05,5.34l-.04,.04h-.07c-13.85,6.63-28.39,13.37-43.71,20.29-32.04,14.43-61.72,26.92-89.04,37.56h-.04c-71.95,28.06-127.52,43.45-166.63,48.87-7.59,1.07-14.55,1.73-20.88,2.06-6.81,.33-12.96,.26-18.38-.18-8.91-.74-15.87-2.54-20.88-5.27-13-7.11-13-20.47,0-38.26,3.09-4.27,7-8.8,11.64-13.59,2.8-2.91,5.89-5.86,9.24-8.87,5.49-5.01,11.64-10.16,18.38-15.47,6.44-5.01,13.44-10.16,20.88-15.43,23.97-16.87,52.7-34.54,83.48-51.7,.15,1.14,.33,2.28,.52,3.42-33.47,19.19-63.04,38.63-84,56.01-8.14,6.74-14.99,13.15-20.25,19.11-.22,.22-.41,.48-.63,.7-16.57,19.07-16.17,32.22,0,37.45,5.12,1.66,11.86,2.54,20.14,2.54h.74c28.72-.18,75.82-10.53,139.6-33.66h.04c30.64-11.08,65.07-25.11,103.25-42.38,8.62-3.9,16.9-7.77,24.97-11.53l.04-.04h.04s.04-.04,.07-.04c18.71-8.84,36.01-17.38,51.92-25.67-.11,.59-.22,1.18-.33,1.77,.15-.59,.26-1.18,.37-1.77,48.68-25.37,84.47-48.13,108.04-67.17,8.47-6.85,15.39-13.22,20.77-19.04v-.04c20.77-22.61,18.45-37.27-4.97-41.06-5.86-.96-13.04-1.25-21.51-.77-1.62,.07-3.28,.18-4.97,.33-30.71,2.5-74.61,13.88-121.74,29.97-.37-.48-.74-.92-1.1-1.36-.41-.48-.77-.92-1.18-1.36,45.59-16.31,90-29.46,126.67-36.6,7.18-1.4,14.07-2.58,20.58-3.5,2.32-.33,4.57-.63,6.78-.88,5.93-.7,11.49-1.18,16.72-1.44,8.1-.41,15.32-.26,21.58,.41,19.52,2.03,29.9,9.06,29.9,20.36Z"/><path class="cls-6" d="M437.61,387.75h-.07c-4.75,3.09-9.87,6.22-15.28,9.43,0,0-.04,0-.04,.04-16.57,9.76-36.16,20.25-58.7,31.15-.04,0-.04,.04-.07,.04s-.04,.04-.07,.04c-7.48,3.61-15.36,7.25-23.49,11.01-44.67,20.29-83.19,34.43-113.34,42.83t-.04,.04c-54.61,15.13-81.82,11.38-68.86-8.87,6.52-10.2,22.98-23.68,45.15-38.15t.04,.07c.26,1.14,.55,2.25,.88,3.35,.11,.44,.22,.88,.37,1.33,.41,1.4,.85,2.76,1.33,4.12-5.01,4.53-8.4,8.54-9.87,11.93-3.5,8.03,3.9,11.23,19.55,9.72,19.07-1.88,50.41-10.83,89.04-26.73,.11,0,.22-.07,.33-.11h.04c8.47-3.5,17.27-7.33,26.4-11.49,35.87-16.35,63.96-32.18,82.52-45.33,8.14-5.82,14.51-11.05,18.82-15.65l.04-.04c9.43-9.94,9.46-16.61-1.44-18.12-1.95-.26-4.27-.37-6.85-.26-1.03-1.84-2.1-3.68-3.24-5.49-.77-1.25-1.55-2.47-2.39-3.68,21.32-5.71,39.44-8.91,51.74-8.54,31.93,.92,19.19,24.23-32.48,57.37Z"/><path class="cls-8" d="M246.75,501.72c.18,.18,.41,.37,.63,.52h.04l.04-.04c-.26-.15-.48-.29-.7-.48Zm166.96-169.17h-.04c.18,.18,.33,.37,.48,.55-.11-.18-.26-.37-.44-.55Z"/><path class="cls-8" d="M556.69,321.87c0,5.82-3.9,13.29-11.86,22.17v.04c-16.94,18.96-52.14,44.26-106.38,73.54,0,0-.04,0-.04,.04-24.19,13.04-52.14,26.84-83.96,41.28-7,3.13-13.85,6.19-20.55,9.13-.07,.04-.11,.04-.18,.07q-.07,.04-.15,.04s0,.04-.04,.04c-24.82,10.83-47.87,20.07-68.97,27.88h-.04c-.07,.04-.18,.07-.26,.07-5.74,2.14-11.34,4.16-16.79,6.04h-.04c-.26-.15-.48-.29-.7-.48,.18,.18,.41,.37,.63,.52-63.78,22.2-108.3,29.86-130.47,25.96-18.82-3.31-21.54-14.99-6.33-33.22,1.84-2.21,3.98-4.53,6.33-6.92,17.38-17.49,47.94-38.74,84.33-59.99,.26,1.55,.59,3.09,.96,4.6-28.21,17.6-49.86,34.36-58.77,47.02-17.93,25.41,16.75,29.79,87.9,8.1h.07c1.58-.48,3.2-.99,4.86-1.51l.04-.04c26.55-8.32,57.85-20.11,93.2-35.68,.04-.04,.11-.04,.15-.07h.04c4.53-1.99,9.17-4.05,13.85-6.19,38.26-17.38,69.97-33.95,94.97-48.94l.04-.04c70.33-42.24,87.24-71.99,46.14-71.88-16.2,.04-40.25,4.93-67.98,13.07-.66-.96-1.36-1.88-2.06-2.84-.18-.18-.33-.37-.48-.59-.11-.18-.26-.37-.44-.55,41.68-13.81,79.65-23.16,105.8-24.78,8.62-.52,15.76-.22,21.39,.85,10.49,1.91,15.8,6.48,15.8,13.26Z"/><g><path class="cls-2" d="M209.75,716.89c8.82,0,15.07,4.96,15.07,14.15v14.7c0,9.19-6.25,13.6-15.07,13.6h-34.19v-12.04h30.15c4.22,0,6.52-2.02,6.52-7.07v-4.23c0-4.96-2.3-7.07-6.52-7.07h-15.81c-8.82,0-15.07-4.87-15.07-14.15v-13.51c0-9.19,6.25-13.6,15.07-13.6h34.19v12.04h-30.14c-4.23,0-6.52,2.11-6.52,7.07v3.03c0,4.96,2.3,7.07,6.52,7.07h15.8Z"/><path class="cls-2" d="M289.82,717.35c0,1.29-.1,4.69-.19,5.79-.46,8.36-6.61,12.22-14.88,12.22h-26.28v23.98h-12.58v-71.67h38.87c8.82,0,15.07,4.96,15.07,14.15v15.53Zm-41.35-17.64v23.62h22.15c4.23,0,6.61-2.11,6.61-7.08v-9.55c0-4.87-2.39-6.98-6.61-6.98h-22.15Z"/><path class="cls-2" d="M294.45,726.44h27.75v11.95h-27.75v-11.95Z"/><path class="cls-2" d="M327.73,759.34v-27.29c0-9.28,6.25-14.24,15.07-14.24h15.9c4.23,0,6.61-2.02,6.61-6.98v-4.04c0-4.96-2.39-7.07-6.61-7.07h-30.14v-12.04h34.18c8.91,0,15.17,4.41,15.17,13.6v14.52c0,9.19-6.26,14.15-15.17,14.15h-15.89c-4.23,0-6.52,2.11-6.52,6.98v10.38h36.94v12.04h-49.53Z"/><path class="cls-2" d="M431.87,759.34h-12.59v-20.22h-32.25c-4.78,0-8.09-2.76-8.09-6.8,0-1.2,.28-2.39,1.01-3.86l20.58-40.8h13.69l-20.13,39.33h25.18v-39.33h12.59v71.67Z"/><path class="cls-2" d="M438.34,687.66h44.29c5.14,0,7.8,2.21,7.8,6.34,0,2.39-.82,5.15-2.48,8.64l-27.02,56.7h-13.87l28.3-59.64h-37.03v-12.04Z"/></g><g><path class="cls-1" d="M285.31,825.2v-11.29c0-3.84,2.58-5.89,6.23-5.89h6.58c1.75,0,2.74-.84,2.74-2.89v-1.67c0-2.05-.99-2.93-2.74-2.93h-12.47v-4.98h14.14c3.69,0,6.27,1.82,6.27,5.62v6.01c0,3.8-2.58,5.85-6.27,5.85h-6.57c-1.75,0-2.7,.88-2.7,2.89v4.29h15.28v4.98h-20.49Z"/><path class="cls-1" d="M332.69,819.57c0,3.8-2.55,5.62-6.24,5.62h-9.92c-3.65,0-6.23-2.05-6.23-5.85v-17.94c0-3.8,2.58-5.85,6.23-5.85h9.92c3.69,0,6.24,2.05,6.24,5.85v18.17Zm-17.19-2.28c0,2.09,.95,2.93,2.93,2.93h6.35c1.75,0,2.74-.84,2.74-2.93v-13.88c0-2.02-.99-2.89-2.74-2.89h-6.35c-1.98,0-2.93,.87-2.93,2.89v13.88Z"/><path class="cls-1" d="M336.88,825.2v-11.29c0-3.84,2.58-5.89,6.23-5.89h6.58c1.75,0,2.74-.84,2.74-2.89v-1.67c0-2.05-.99-2.93-2.74-2.93h-12.47v-4.98h14.14c3.69,0,6.27,1.82,6.27,5.62v6.01c0,3.8-2.58,5.85-6.27,5.85h-6.57c-1.75,0-2.7,.88-2.7,2.89v4.29h15.28v4.98h-20.49Z"/><path class="cls-1" d="M379.97,825.2h-5.21v-8.36h-13.34c-1.98,0-3.35-1.14-3.35-2.81,0-.5,.11-.99,.42-1.6l8.52-16.88h5.66l-8.33,16.27h10.42v-16.27h5.21v29.65Z"/></g><g><path class="cls-11" d="M282,639.38v-4.33h3.4c2.52,0,3.97-1.06,3.97-3.89v-26.23h4.55v28.04c0,4.46-2.92,6.4-7.16,6.4h-4.77Z"/><path class="cls-11" d="M296.36,639.38l11.57-32.28c.75-2.12,1.94-2.87,3.31-2.87s2.65,.79,3.4,2.87l11.44,32.28h-4.68l-2.96-7.86h-14.49l-2.91,7.86h-4.68Zm14.84-28.27l-5.92,16.12h11.88l-5.96-16.12Z"/><path class="cls-11" d="M331.4,639.38h-5.3l11.04-17.18-11.04-17.27h5.25l8.44,13.03,8.44-13.03h5.25l-11.04,17.27,11.09,17.18h-5.3l-8.44-12.94-8.39,12.94Z"/><path class="cls-11" d="M353.54,639.38l11.57-32.28c.75-2.12,1.94-2.87,3.31-2.87s2.65,.79,3.4,2.87l11.44,32.28h-4.68l-2.96-7.86h-14.49l-2.91,7.86h-4.68Zm14.84-28.27l-5.92,16.12h11.88l-5.96-16.12Z"/></g><path class="cls-11" d="M565.79,379.24v445.9c0,33.99-27.65,61.64-61.64,61.64H157.67c-33.99,0-61.64-27.65-61.64-61.64v-253.53c6.33-.33,13.29-.99,20.88-2.06v39.48h144.83l-11.08,13.15,11.08,12.41H116.91v169.39h144.83v12.81H116.91v8.36c0,22.54,18.26,40.8,40.76,40.8H504.15c22.5,0,40.76-18.26,40.76-40.8v-8.36h-144.83v-12.81h144.83v-169.39h-144.83l11.08-12.41-11.08-13.15h144.83v-215.94c7.48-4.75,14.43-9.35,20.88-13.85Z"/><path class="cls-1" d="M172.73,306.52c.61,.07,3.12,.49,5.1,4.21,2.54,4.77,2.06,10.95,2,11.71,.01-1,.15-7.26,3.06-11.65,2.18-3.29,4.62-3.58,5.39-3.62-.78-.18-3.94-1.07-6.25-6.05-1.55-3.34-1.96-6.88-2.08-8.53-.05,1.23-.31,5.59-2.3,9.36-1.91,3.59-4.19,4.38-4.9,4.57Z"/><path class="cls-1" d="M366.36,197.65c-.51-.06-2.6-.41-4.24-3.5-2.11-3.96-1.71-9.1-1.66-9.74,0,.83-.12,6.03-2.54,9.69-1.81,2.73-3.84,2.98-4.48,3.01,.65,.15,3.28,.89,5.2,5.03,1.29,2.77,1.63,5.72,1.73,7.09,.04-1.03,.26-4.65,1.92-7.78,1.58-2.99,3.49-3.64,4.07-3.8Z"/><path class="cls-1" d="M481.49,524.43c-.99,.12-5.06,.8-8.26,6.82-4.11,7.72-3.34,17.74-3.24,18.98-.02-1.62-.24-11.76-4.95-18.88-3.53-5.33-7.48-5.8-8.73-5.86,1.26-.29,6.39-1.74,10.13-9.8,2.51-5.41,3.17-11.15,3.38-13.81,.08,2,.5,9.06,3.73,15.16,3.09,5.82,6.79,7.09,7.94,7.4Z"/><rect class="cls-1" x="133.96" y="837.3" width="397.35" height="7.61" rx="1.03" ry="1.03"/></svg>