<?xml version="1.0" encoding="UTF-8"?><svg id="Layer_1" xmlns="http://www.w3.org/2000/svg" viewBox="0 0 389.3 387.78"><defs><style>.cls-1{fill:#fab05d;}.cls-2{fill:#f37f57;}.cls-3{fill:#efb882;}.cls-4{fill:#de7450;}.cls-5{fill:#f79d59;}</style></defs><g><g><path class="cls-5" d="M327.4,186.66c-.04-1.16-.12-2.36-.25-3.57-.08-1.16-.21-2.36-.33-3.53-.12-1.41-.33-2.82-.5-4.19-.12-.83-.25-1.66-.37-2.49-.08-.75-.21-1.49-.37-2.24-.04-.37-.12-.71-.21-1.04-.12-.83-.29-1.66-.46-2.49-.25-1.37-.54-2.74-.87-4.06-1.62-7.01-3.82-13.81-6.51-20.36-4.48-10.95-10.37-21.15-17.38-30.4-4.23-5.56-8.83-10.78-13.81-15.55-1.41-1.37-2.86-2.7-4.36-3.98-1.66-1.53-3.4-2.99-5.18-4.36-.71-.58-1.41-1.16-2.16-1.7-1.24-.95-2.49-1.91-3.77-2.82-1.45-1-2.86-2.03-4.31-2.94-.25-.17-.46-.29-.71-.46-1.45-.95-2.9-1.87-4.4-2.65-.87-.58-1.74-1.08-2.61-1.58-1.7-1-3.44-1.91-5.18-2.78-.29-.17-.62-.33-.91-.5-1.41-.66-2.86-1.37-4.31-2.03-.5-.25-1-.46-1.49-.66-1.58-.71-3.19-1.37-4.81-1.99-.17-.08-.29-.17-.46-.21-1.12-.46-2.24-.87-3.4-1.24-1.78-.66-3.61-1.24-5.43-1.82-1.58-.54-3.15-1-4.73-1.41-1.08-.29-2.16-.58-3.28-.87-.62-.12-1.24-.29-1.91-.46-1.29-.29-2.61-.58-3.94-.83-2.45-.5-4.94-.91-7.47-1.29-.21,0-.46-.04-.66-.08-.21,0-.41-.04-.62-.08-1.2-.12-2.36-.29-3.57-.41-.25-.04-.54-.04-.79-.08-.46-.04-.95-.08-1.45-.12-3.9-.33-7.88-.5-11.86-.5h-2.86c-.25,0-.5,0-.79,.04-.5,0-1.04,.04-1.58,.04-1.58,.04-3.15,.12-4.73,.29-.75,.04-1.49,.08-2.2,.17-.71,.04-1.45,.12-2.16,.21-.58,.04-1.12,.12-1.7,.21-1.29,.12-2.57,.29-3.86,.5-.87,.12-1.7,.25-2.53,.41-.5,.04-1,.12-1.49,.25-.91,.17-1.78,.33-2.65,.5-.37,.08-.75,.12-1.12,.21-1.16,.25-2.28,.5-3.4,.75-.91,.21-1.78,.46-2.7,.66-.71,.17-1.37,.37-2.03,.54-.83,.21-1.66,.46-2.45,.71-2.7,.79-5.39,1.7-8,2.65-.58,.17-1.12,.37-1.66,.58-1.58,.58-3.11,1.24-4.65,1.87-.29,.12-.58,.25-.83,.37-.58,.25-1.16,.5-1.74,.75-.54,.25-1.12,.5-1.7,.79-.75,.33-1.49,.66-2.24,1.04-.41,.21-.79,.41-1.2,.62-6.8,3.4-13.27,7.34-19.37,11.82-1,.75-2.03,1.49-2.99,2.28-.41,.29-.83,.62-1.2,.91-.08,.04-.12,.08-.21,.12-.41,.33-.83,.71-1.24,1.04-.29,.21-.58,.46-.87,.71-.5,.41-1,.79-1.45,1.2-.17,.17-.33,.29-.5,.46-6.76,5.85-12.94,12.36-18.46,19.41-.91,1.16-1.82,2.36-2.7,3.57-1.62,2.24-3.19,4.52-4.69,6.89-.75,1.16-1.49,2.32-2.16,3.53-.21,.29-.37,.58-.54,.91-.71,1.2-1.37,2.41-2.03,3.61-.54,.91-1.04,1.82-1.49,2.74-.46,.95-.91,1.87-1.37,2.82-.71,1.41-1.37,2.82-1.99,4.27-.46,.95-.87,1.91-1.24,2.9-.41,.91-.79,1.87-1.16,2.82-.58,1.49-1.12,2.99-1.66,4.52-.66,1.95-1.33,3.9-1.87,5.89-.5,1.58-.91,3.15-1.33,4.77-.46,1.82-.91,3.65-1.29,5.47-.29,1.33-.54,2.65-.79,4.02-.12,.5-.21,1-.29,1.49-.17,.91-.33,1.87-.41,2.78-.25,1.66-.5,3.36-.66,5.06-.17,1.7-.33,3.44-.46,5.14-.25,3.19-.37,6.43-.37,9.71,0,5.97,.41,11.86,1.16,17.59,1.87,14.64,6.1,28.49,12.28,41.23,1.62,3.32,3.32,6.51,5.23,9.66,1.2,2.03,2.45,4.06,3.77,6.01,1.29,1.99,2.65,3.94,4.06,5.81,1.41,1.91,2.86,3.77,4.36,5.6,1.49,1.78,3.07,3.57,4.65,5.31,1.62,1.74,3.28,3.48,4.94,5.14,.04,.04,.08,.08,.12,.12,1.7,1.66,3.44,3.28,5.23,4.81,1.7,1.53,3.44,2.99,5.23,4.44,.08,.04,.21,.12,.29,.21,1.87,1.49,3.82,2.94,5.77,4.31,3.48,2.49,7.05,4.81,10.78,6.89,1.82,1.08,3.73,2.12,5.64,3.07,1.91,1,3.82,1.95,5.77,2.82,6.39,2.9,13.02,5.31,19.87,7.18,1.16,.33,2.28,.62,3.44,.91,2.32,.58,4.65,1.08,7.01,1.53,1.16,.25,2.36,.46,3.53,.62,1.2,.21,2.41,.37,3.61,.54,5.97,.83,12.11,1.24,18.33,1.24,1.82,0,3.65-.04,5.47-.12,1.29-.04,2.57-.12,3.9-.21,1.7-.12,3.44-.25,5.14-.46,1.62-.17,3.19-.33,4.77-.58,1.24-.17,2.53-.37,3.77-.58,2.07-.37,4.11-.79,6.18-1.24,1.33-.25,2.61-.58,3.94-.91,1.24-.33,2.53-.66,3.77-1,.54-.17,1.04-.33,1.58-.46,1.2-.37,2.41-.75,3.61-1.16,5.64-1.82,11.12-4.06,16.38-6.59,.71-.33,1.41-.66,2.07-1.04,2.28-1.12,4.56-2.36,6.76-3.61,1.29-.79,2.61-1.58,3.9-2.36s2.57-1.62,3.82-2.49c2.53-1.7,5.02-3.48,7.42-5.31,1.2-.95,2.41-1.87,3.57-2.86,1.16-.95,2.32-1.95,3.44-2.94,1.12-1,2.24-2.03,3.36-3.07,.08-.08,.21-.21,.29-.25,1.04-1,1.99-1.95,2.94-2.94,1.08-1.08,2.12-2.16,3.15-3.28,.95-1.04,1.91-2.12,2.86-3.19,.04-.04,.08-.12,.17-.21,1-1.12,1.95-2.32,2.9-3.48,3.82-4.73,7.34-9.71,10.49-14.93,.71-1.2,1.41-2.41,2.07-3.61,.83-1.41,1.62-2.9,2.36-4.36,.04-.12,.12-.21,.17-.33,.75-1.45,1.45-2.9,2.12-4.4,.79-1.62,1.53-3.28,2.2-4.94,.71-1.66,1.37-3.32,1.99-4.98,.62-1.7,1.2-3.4,1.74-5.1,.05-.15,.09-.3,.14-.44,.39-1.22,.77-2.44,1.13-3.67,.59-1.98,1.15-3.96,1.63-5.97,1.24-5.1,2.2-10.37,2.82-15.68,.46-3.57,.75-7.18,.87-10.83,.08-1.78,.12-3.65,.12-5.47,0-2.41-.08-4.81-.21-7.22Zm-112.03,91.46c-2.94,1.37-6.39,.66-8.54-1.53-.58-.58-1.08-1.29-1.45-2.07-.71-1.58-.83-3.28-.46-4.89l.04-.29-.87-1.99c-.29-.54-.5-1.08-.62-1.66-.04-.12-.08-.29-.08-.41-5.02-3.9-9.79-8.17-14.23-12.77-.95-.95-1.87-1.91-2.78-2.9-1.74-1.87-4.89-1.04-5.56,1.41-.62,2.28-1.29,4.56-1.91,6.8-1.82,6.47-3.65,12.9-5.43,19.33-.75,2.61-1.45,5.23-2.2,7.84-.75,2.7-4.31,3.32-5.89,1.04-.95-1.37-1.91-2.86-2.86-4.52-2.2-3.73-4.36-8.13-6.14-13.23-1.37-3.86-2.49-8.13-3.19-12.77-.58-3.98-.83-7.8-.79-11.45,.08-7.96,1.41-15.1,3.07-21.03,1.41-4.81,3.03-8.83,4.44-11.9-.33-.66-.71-1.33-.95-1.99-2.74-5.77-5.06-11.65-7.01-17.54-5.06-15.43-7.59-31.11-7.76-46.58-.12-11.36,1.08-22.65,3.44-33.55,.46-2.12,2.82-3.24,4.73-2.24,14.68,7.71,28.25,17.96,39.94,30.49,7.34,7.76,13.89,16.34,19.58,25.76,2.94,4.81,5.64,9.87,8.09,15.1,.33,.75,.71,1.41,.87,2.12,.37,.08,.79,.21,1.2,.33,3.98,1.12,9.08,2.86,14.6,5.64,7.34,3.69,15.39,9.17,22.56,17.34,.37,.41,.71,.83,1.04,1.24,8.3,9.75,12.44,19.91,14.6,27.58,.75,2.7-1.95,5.06-4.52,3.9-10.7-4.81-21.4-9.66-32.14-14.43-2.32-1.04-4.98,.83-4.65,3.36,1,7.76,1.29,15.47,1.04,23.1,.5,.46,.83,1.12,1.2,1.78l.87,1.99c.25,.08,.5,.21,.71,.37,1.29,.71,2.32,1.87,3.07,3.32,.75,1.58,.87,3.19,.54,4.73-.5,2.24-2.03,4.15-4.19,5.14l-2.45,1.16-18.95,8.92Z"/><path class="cls-2" d="M327.61,193.88c0,1.82-.04,3.69-.12,5.47-.12,3.65-.41,7.26-.87,10.83-.62,5.31-1.58,10.54-2.82,15.68-.83,3.4-1.82,6.76-2.9,10.08-.54,1.7-1.12,3.4-1.74,5.1-.62,1.66-1.29,3.32-1.99,4.98-.66,1.66-1.41,3.32-2.2,4.94-.66,1.49-1.37,2.94-2.12,4.4-.04,.12-.12,.21-.17,.33-.75,1.45-1.53,2.94-2.36,4.36-.66,1.2-1.37,2.41-2.07,3.61-3.15,5.23-6.68,10.2-10.49,14.93-.95,1.16-1.91,2.36-2.9,3.48-.08,.08-.12,.17-.17,.21-.95,1.08-1.91,2.16-2.86,3.19-1.04,1.12-2.07,2.2-3.15,3.28-.95,1-1.95,1.95-2.94,2.94-.08,.04-.21,.17-.29,.25-1.12,1.04-2.24,2.07-3.36,3.07-1.12,1-2.28,1.99-3.44,2.94-1.16,1-2.36,1.91-3.57,2.86-2.41,1.82-4.89,3.61-7.42,5.31-1.24,.87-2.53,1.7-3.82,2.49s-2.61,1.58-3.9,2.36c-2.2,1.24-4.48,2.49-6.76,3.61-.66,.37-1.37,.71-2.07,1.04-5.27,2.53-10.74,4.77-16.38,6.59-1.2,.41-2.41,.79-3.61,1.16-.54,.12-1.04,.29-1.58,.46-1.24,.33-2.53,.66-3.77,1-1.33,.33-2.61,.66-3.94,.91-2.07,.46-4.11,.87-6.18,1.24-1.24,.21-2.53,.41-3.77,.58-1.58,.25-3.15,.41-4.77,.58-1.7,.21-3.44,.33-5.14,.46-1.33,.08-2.61,.17-3.9,.21-1.82,.08-3.65,.12-5.47,.12-6.22,0-12.36-.41-18.33-1.24-1.2-.17-2.41-.33-3.61-.54-1.16-.17-2.36-.37-3.53-.62-2.36-.46-4.69-.95-7.01-1.53-1.16-.29-2.28-.58-3.44-.91-6.84-1.87-13.48-4.27-19.87-7.18-1.95-.87-3.86-1.82-5.77-2.82-1.91-.95-3.82-1.99-5.64-3.07-3.73-2.12-7.3-4.44-10.78-6.89-1.95-1.37-3.9-2.82-5.77-4.31-.08-.08-.21-.17-.29-.21-1.78-1.45-3.53-2.9-5.23-4.44-1.78-1.53-3.53-3.15-5.23-4.81-.04-.04-.08-.08-.12-.12-1.66-1.66-3.32-3.4-4.94-5.14-1.58-1.74-3.15-3.53-4.65-5.31-1.49-1.82-2.94-3.69-4.36-5.6-1.41-1.87-2.78-3.82-4.06-5.81-1.33-1.95-2.57-3.98-3.77-6.01,3.24,.71,6.55,1.12,9.87,1.33,9,.54,18.13-.37,26.84-2.61,9-2.36,17.54-6.18,25.88-10.2,4.6-2.2,9.12-4.48,13.65-6.84-.04,3.65,.21,7.47,.79,11.45,.71,4.65,1.82,8.92,3.19,12.77,1.78,5.1,3.94,9.5,6.14,13.23,.95,1.66,1.91,3.15,2.86,4.52,1.58,2.28,5.14,1.66,5.89-1.04,.75-2.61,1.45-5.23,2.2-7.84,1.78-6.43,3.61-12.86,5.43-19.33,.62-2.24,1.29-4.52,1.91-6.8,.66-2.45,3.82-3.28,5.56-1.41,.91,1,1.82,1.95,2.78,2.9,4.44,4.6,9.21,8.88,14.23,12.77,0,.12,.04,.29,.08,.41,.12,.58,.33,1.12,.62,1.66l.87,1.99-.04,.29c-.37,1.62-.25,3.32,.46,4.89,.37,.79,.87,1.49,1.45,2.07,2.16,2.2,5.6,2.9,8.54,1.53l18.95-8.92,2.45-1.16c2.16-1,3.69-2.9,4.19-5.14,.33-1.53,.21-3.15-.54-4.73-.75-1.45-1.78-2.61-3.07-3.32-.21-.17-.46-.29-.71-.37l-.87-1.99c-.37-.66-.71-1.33-1.2-1.78,.25-7.63-.04-15.35-1.04-23.1-.33-2.53,2.32-4.4,4.65-3.36,10.74,4.77,21.44,9.62,32.14,14.43,2.57,1.16,5.27-1.2,4.52-3.9-2.16-7.67-6.3-17.83-14.6-27.58-.33-.41-.66-.83-1.04-1.24-7.18-8.17-15.22-13.65-22.56-17.34,4.02-2.99,8.17-5.77,12.57-8.13,22.69-12.19,49.32-12.82,74.82-17.42,.33,1.33,.62,2.7,.87,4.06,.17,.83,.33,1.66,.46,2.49,.08,.33,.17,.66,.21,1.04,.17,.75,.29,1.49,.37,2.24,.12,.83,.25,1.66,.37,2.49,.17,1.37,.37,2.78,.5,4.19,.12,1.16,.25,2.36,.33,3.53,.12,1.2,.21,2.41,.25,3.57,.12,2.41,.21,4.81,.21,7.22Z"/><path class="cls-5" d="M312.68,255.68c-.75,1.45-1.53,2.94-2.36,4.36-.66,1.2-1.37,2.41-2.07,3.61-3.15,5.23-6.68,10.2-10.49,14.93-.95,1.16-1.91,2.36-2.9,3.48-.08,.08-.12,.17-.17,.21-.95,1.08-1.91,2.16-2.86,3.19-1.04,1.12-2.07,2.2-3.15,3.28-.95,1-1.95,1.95-2.94,2.94-.08,.04-.21,.17-.29,.25-1.12,1.04-2.24,2.07-3.36,3.07-1.12,1-2.28,1.99-3.44,2.94-1.16,1-2.36,1.91-3.57,2.86-2.41,1.82-4.89,3.61-7.42,5.31-1.24,.87-2.53,1.7-3.82,2.49s-2.61,1.58-3.9,2.36c-2.2,1.24-4.48,2.49-6.76,3.61-.66,.37-1.37,.71-2.07,1.04-5.27,2.53-10.74,4.77-16.38,6.59-1.2,.41-2.41,.79-3.61,1.16-.54,.12-1.04,.29-1.58,.46-1.24,.33-2.53,.66-3.77,1-1.33,.33-2.61,.66-3.94,.91-2.07,.46-4.11,.87-6.18,1.24-1.24,.21-2.53,.41-3.77,.58-1.58,.25-3.15,.41-4.77,.58-1.7,.21-3.44,.33-5.14,.46-1.33,.08-2.61,.17-3.9,.21-1.82,.08-3.65,.12-5.47,.12-6.22,0-12.36-.41-18.33-1.24-1.2-.17-2.41-.33-3.61-.54-1.16-.17-2.36-.37-3.53-.62-2.36-.46-4.69-.95-7.01-1.53-1.16-.29-2.28-.58-3.44-.91-6.84-1.87-13.48-4.27-19.87-7.18,17.34-13.48,36-26.05,55.66-34.72,4.73-2.07,9.54-3.94,14.39-5.6,2.16,2.2,5.6,2.9,8.54,1.53l18.95-8.92c25.84-5.52,52.72-8.09,78.35-13.52Z"/><path class="cls-1" d="M158.96,209.1c.25,.66,.62,1.33,.95,1.99-1.41,3.07-3.03,7.09-4.44,11.9-26.84,13.31-55.29,23.31-84.53,29.7-6.18-12.73-10.41-26.59-12.28-41.23,11.24,.37,22.48,.04,33.55-2.07,7.13-1.37,14.06-3.48,20.99-5.6,12.9-3.9,25.92-7.84,38.74-12.24,1.95,5.89,4.27,11.78,7.01,17.54Z"/><path class="cls-1" d="M317.53,142.7c-.21,.12-.41,.25-.66,.33-4.94,2.07-10.33,2.78-15.6,3.82-28.78,5.64-54.25,20.2-79.22,36.13-.41-.12-.83-.25-1.2-.33-.17-.71-.54-1.37-.87-2.12-2.45-5.23-5.14-10.29-8.09-15.1,9.17-5.27,18-11.24,26.25-18,6.64-5.43,12.9-11.36,19.91-16.38,12.57-9.04,27-14.89,42.1-18.75,7.01,9.25,12.9,19.45,17.38,30.4Z"/><path class="cls-2" d="M286.34,96.74c-5.93,5.23-12.98,9.37-19.87,13.4-15.55,9-31.27,18-48.32,23.56-8.38,2.74-17.05,4.56-25.84,5.97-11.7-12.53-25.26-22.77-39.94-30.49-1.91-1-4.27,.12-4.73,2.24-2.36,10.91-3.57,22.19-3.44,33.55-20.86,2.41-41.06,6.3-59.02,17.01-10.12,5.97-18.87,13.89-27.29,22.19,.12-1.7,.29-3.44,.46-5.14,.17-1.7,.41-3.4,.66-5.06,.21-1.45,.41-2.86,.71-4.27,.25-1.37,.5-2.7,.79-4.02,.37-1.82,.83-3.65,1.29-5.47,.41-1.62,.83-3.19,1.33-4.77,.54-1.99,1.2-3.94,1.87-5.89,.54-1.53,1.08-3.03,1.66-4.52,.37-.95,.75-1.91,1.16-2.82,.37-1,.79-1.95,1.24-2.9,.62-1.45,1.29-2.86,1.99-4.27,.46-.95,.91-1.87,1.37-2.82,.46-.91,.95-1.82,1.49-2.74,.66-1.2,1.33-2.41,2.03-3.61,.17-.33,.33-.62,.54-.91,.66-1.2,1.41-2.36,2.16-3.53,1.49-2.36,3.07-4.65,4.69-6.89,.87-1.2,1.78-2.41,2.7-3.57,5.18-2.36,10.66-3.9,16.22-5.18,33.68-7.76,69.18-5.31,102.65-13.98,14.52-3.73,29.61-10.53,36.79-23.72,.17,.04,.29,.12,.46,.21,1.62,.62,3.24,1.29,4.81,1.99,.5,.21,1,.41,1.49,.66,1.74,.79,3.48,1.62,5.23,2.53,1.74,.87,3.48,1.78,5.18,2.78,.87,.5,1.74,1,2.61,1.58,1.49,.79,2.94,1.7,4.4,2.65,1.7,1.08,3.36,2.24,5.02,3.4,1.29,.91,2.53,1.87,3.77,2.82,.75,.54,1.45,1.12,2.16,1.7,1.78,1.37,3.53,2.82,5.18,4.36,1.49,1.29,2.94,2.61,4.36,3.98Z"/><path class="cls-4" d="M156.39,268.24c1.78,5.1,3.94,9.5,6.14,13.23-11.86,4.73-23.68,9.46-34.88,15.51-4.36,2.36-8.63,4.89-13.07,7.13-1.95-1.37-3.9-2.82-5.77-4.31-.08-.08-.21-.17-.29-.21-1.78-1.45-3.53-2.9-5.23-4.44-1.78-1.53-3.53-3.15-5.23-4.81-.04-.04-.08-.08-.12-.12-1.66-1.66-3.32-3.4-4.94-5.14,9.5-1.45,19-2.7,28.33-4.89,12.03-2.78,23.72-7.09,35.05-11.95Z"/><path class="cls-4" d="M203.39,265.26c0,.12,.04,.29,.08,.41-10.08,3.65-20.03,7.51-29.99,11.45,1.78-6.43,3.61-12.86,5.43-19.33,3.44-1.7,6.84-3.48,10.24-5.31,4.44,4.6,9.21,8.88,14.23,12.77Z"/><path class="cls-4" d="M327.61,193.88c0,1.82-.04,3.69-.12,5.47-.12,3.65-.41,7.26-.87,10.83-.62,5.31-1.58,10.54-2.82,15.68-.83,3.4-1.82,6.76-2.9,10.08-7.55,2.94-15.22,5.56-23.1,7.34-9.71,2.2-19.54,3.19-29.32,4.73-10.54,1.66-20.86,4.02-31.11,6.84-.21-.17-.46-.29-.71-.37l-.87-1.99c-.37-.66-.71-1.33-1.2-1.78,.25-7.63-.04-15.35-1.04-23.1-.33-2.53,2.32-4.4,4.65-3.36,10.74,4.77,21.44,9.62,32.14,14.43,2.57,1.16,5.27-1.2,4.52-3.9-2.16-7.67-6.3-17.83-14.6-27.58,4.77-3.03,9.62-5.97,14.56-8.71,13.07-7.26,26.96-13.31,41.56-16.76,3.28-.79,6.84-1.62,10.45-2.16,.12,1.16,.25,2.36,.33,3.53,.12,1.2,.21,2.41,.25,3.57,.12,2.41,.21,4.81,.21,7.22Z"/><path class="cls-1" d="M241.68,68.06c-7.18,13.19-22.28,19.99-36.81,23.74-33.46,8.67-68.96,6.24-102.65,13.99-5.55,1.29-11.04,2.83-16.22,5.18,24.68-31.72,63.21-52.11,106.54-52.11,17.33,0,33.89,3.26,49.14,9.21Z"/></g><path class="cls-3" d="M362.64,108.54c-13.87-.4-34.29,3.2-58.29,9.64,2.29,3.32,4.4,6.78,6.35,10.33,2.92-.11,5.49-.03,7.72,.29,12.27,1.69,12.24,9.21,1.6,20.42-4.86,5.15-12.01,11.1-21.22,17.65-20.91,14.82-52.57,32.63-92.95,51.05-10.3,4.69-20.19,9.01-29.75,12.93h-.03c-43.7,18.02-79.11,28.14-100.68,30.26-17.62,1.69-25.97-1.92-22.02-10.95,1.66-3.8,5.49-8.35,11.1-13.44-1.12-3.26-2.09-6.61-2.92-9.98-25,16.3-43.53,31.49-50.85,42.96-14.62,22.82,16.05,27.06,77.54,9.98t.06-.03c33.98-9.44,77.34-25.37,127.65-48.25,9.21-4.2,18.1-8.35,26.57-12.44,.03,0,.03-.03,.06-.03,25.4-12.27,47.51-24.08,66.16-35.12,6.12-3.63,11.87-7.15,17.25-10.61,0,0,.03-.03,.06-.03,58.2-37.3,72.53-63.55,36.61-64.61Z"/></g><circle class="cls-2" cx="167.21" cy="148.56" r="9.94"/></svg>