<?xml version="1.0" encoding="UTF-8"?><svg id="Layer_1" xmlns="http://www.w3.org/2000/svg" viewBox="0 0 389.3 387.78"><defs><style>.cls-1{fill:#fab05d;}.cls-2{fill:#f37f57;}.cls-3{fill:#efb882;}.cls-4{fill:#f79d59;}</style></defs><path class="cls-1" d="M316.28,150.53c-4.71,5.01-11.63,10.77-20.56,17.13-.11,0-.23,.04-.34,.04-4.07,.56-8.13,1.2-12.16,1.92-1.96,.34-3.88,.72-5.8,1.09-.41,.08-.87,.19-1.28,.26-1.32,.3-2.64,.6-3.92,.9-1.02,.23-2.03,.49-3.01,.75-1.32,.34-2.6,.72-3.92,1.09-1.73,.49-3.46,1.05-5.2,1.69-1.05,.38-2.11,.75-3.13,1.17-.53,.19-1.13,.41-1.69,.68-1.17,.45-2.33,.98-3.5,1.54-1.43,.64-2.82,1.32-4.18,2.07-4.26,2.3-8.28,5.01-12.2,7.91-5.35-2.71-10.28-4.41-14.16-5.5-.41-.11-.79-.23-1.17-.3-.15-.68-.53-1.36-.87-2.07-2.37-5.05-4.97-9.98-7.83-14.65-5.5-9.11-11.86-17.47-18.98-25,8.51-1.36,16.94-3.13,25.04-5.76,16.57-5.42,31.82-14.16,46.92-22.86,6.66-3.92,13.52-7.94,19.24-13.03,4.86,4.63,9.3,9.71,13.4,15.1,1.43,1.88,2.79,3.77,4.1,5.72,.34,.45,.64,.94,.94,1.43,.6,.87,1.17,1.73,1.69,2.64,.38,.6,.75,1.17,1.09,1.77,.41,.68,.83,1.36,1.24,2.07,.41,.68,.79,1.39,1.17,2.11,2.49,4.44,4.71,9.04,6.63,13.78,.87,2.07,1.66,4.18,2.41,6.29Z"/><g><path class="cls-4" d="M279.39,95.77c-1.61-1.49-3.3-2.9-5.03-4.23-.68-.56-1.37-1.13-2.09-1.65-1.21-.93-2.41-1.85-3.66-2.74-1.61-1.13-3.22-2.25-4.87-3.3-1.41-.93-2.82-1.81-4.27-2.58-.85-.56-1.69-1.05-2.54-1.53-1.65-.97-3.34-1.85-5.03-2.7-.6-.32-1.17-.6-1.77-.93-1.09-.52-2.21-1.05-3.3-1.53-.48-.24-.97-.44-1.45-.64-1.53-.68-3.1-1.33-4.67-1.93-.16-.08-.28-.16-.44-.2-1.09-.44-2.17-.84-3.3-1.21-.84-.32-1.73-.64-2.62-.93-3.02-1.05-6.08-1.93-9.18-2.7-.93-.28-1.89-.52-2.86-.72-.16-.04-.36-.08-.56-.12-.97-.24-1.93-.44-2.9-.6-.24-.08-.52-.12-.76-.16-.52-.08-1.05-.2-1.61-.32-1.77-.32-3.54-.6-5.31-.89-.04,0-.12,0-.16-.04-.2,0-.44-.04-.64-.08-.2,0-.4-.04-.6-.08-1.17-.12-2.29-.28-3.46-.4-.24-.04-.52-.04-.76-.08-.16,0-.32,0-.48-.04-2.05-.16-4.1-.32-6.16-.4-2.09-.12-4.19-.16-6.28-.16h-2.78s-.08,0-.16,.04c-.68,0-1.41,.04-2.13,.04-1.53,.04-3.06,.12-4.59,.28-.68,.04-1.41,.08-2.13,.16-.68,.04-1.41,.12-2.09,.2-.56,.04-1.09,.12-1.65,.2-1.05,.12-2.05,.24-3.1,.4-1.05,.12-2.09,.28-3.1,.48-.48,.04-.97,.12-1.45,.24-.89,.16-1.73,.32-2.58,.48-.36,.08-.72,.12-1.09,.2-1.13,.24-2.21,.48-3.3,.72-.12,.04-.28,.08-.4,.12-.72,.16-1.45,.36-2.21,.52-.68,.16-1.33,.36-1.97,.52-.8,.2-1.61,.44-2.37,.68-2.62,.76-5.23,1.65-7.77,2.58-.56,.16-1.09,.36-1.61,.56-1.53,.56-3.02,1.21-4.51,1.81-.28,.12-.56,.24-.8,.36-.56,.24-1.13,.48-1.69,.72-.52,.24-1.09,.48-1.65,.76-.72,.32-1.45,.64-2.17,1.01-.4,.2-.76,.4-1.17,.6-3.02,1.53-6,3.14-8.85,4.87-1.33,.8-2.62,1.61-3.9,2.45-1.53,.97-3.02,1.97-4.51,3.06-1.37,.97-2.7,1.93-4.02,2.98-.52,.36-1.05,.76-1.57,1.21-.08,.04-.12,.08-.2,.12-.4,.32-.8,.68-1.21,1.01-.32,.24-.6,.48-.84,.68-.48,.4-.97,.76-1.41,1.17-.16,.16-.32,.28-.48,.44-.12,.12-.24,.2-.36,.32-1.21,1.05-2.41,2.13-3.58,3.26-.6,.52-1.21,1.09-1.77,1.69-1.17,1.13-2.33,2.29-3.46,3.46-.28,.28-.52,.56-.8,.85-.52,.6-1.09,1.21-1.65,1.81-2.21,2.41-4.31,4.87-6.28,7.44-.89,1.13-1.77,2.29-2.62,3.46-1.57,2.17-3.1,4.39-4.55,6.68-.72,1.13-1.45,2.25-2.09,3.42-.2,.28-.36,.56-.52,.89-.68,1.17-1.33,2.33-1.97,3.5-.52,.89-1.01,1.77-1.45,2.66-.44,.93-.89,1.81-1.33,2.74-.68,1.37-1.33,2.74-1.93,4.14-.44,.93-.85,1.85-1.21,2.82-.4,.89-.76,1.81-1.13,2.74-.56,1.45-1.09,2.9-1.61,4.39-.64,1.89-1.29,3.78-1.81,5.71-.48,1.53-.89,3.06-1.29,4.63-.44,1.77-.89,3.54-1.25,5.31-.28,1.29-.52,2.58-.76,3.9-.12,.48-.2,.97-.28,1.45-.16,.89-.32,1.81-.4,2.7-.24,1.61-.48,3.26-.64,4.91-.16,1.65-.32,3.34-.44,4.99,8.17-8.05,16.66-15.73,26.48-21.53,17.42-10.38,37.02-14.16,57.26-16.5-.12-11.03,1.05-21.97,3.34-32.56,.44-2.05,2.74-3.14,4.59-2.17,14.25,7.48,27.4,17.42,38.75,29.58,8.53-1.37,16.94-3.14,25.07-5.79,16.54-5.39,31.79-14.12,46.88-22.86,6.68-3.9,13.52-7.93,19.28-13-1.37-1.33-2.78-2.62-4.23-3.86Zm-46.24,171.19l-18.39,8.65c-2.86,1.33-6.2,.64-8.29-1.49-4.71,1.61-9.38,3.42-13.96,5.43-19.07,8.41-37.18,20.6-54,33.68,6.2,2.82,12.64,5.15,19.28,6.96,1.13,.32,2.21,.6,3.34,.89,2.25,.56,4.51,1.05,6.8,1.49,1.13,.24,2.29,.44,3.42,.6,1.17,.2,2.33,.36,3.5,.52,5.79,.8,11.75,1.21,17.79,1.21,1.77,0,3.54-.04,5.31-.12,1.25-.04,2.49-.12,3.78-.2,1.65-.12,3.34-.24,4.99-.44,1.57-.16,3.1-.32,4.63-.56,1.21-.16,2.45-.36,3.66-.56,2.01-.36,3.98-.76,6-1.21,1.29-.24,2.54-.56,3.82-.89,1.21-.32,2.45-.64,3.66-.97,.52-.16,1.01-.32,1.53-.44,1.17-.36,2.33-.72,3.5-1.13,5.47-1.77,10.78-3.94,15.9-6.4,.68-.32,1.37-.64,2.01-1.01,2.21-1.09,4.43-2.29,6.56-3.5,1.25-.76,2.54-1.53,3.78-2.29,1.25-.76,2.49-1.57,3.7-2.41,2.45-1.65,4.87-3.38,7.2-5.15,1.17-.93,2.33-1.81,3.46-2.78,1.13-.93,2.25-1.89,3.34-2.86,1.09-.97,2.17-1.97,3.26-2.98,.08-.08,.2-.2,.28-.24,.97-.97,1.93-1.89,2.86-2.86,1.05-1.05,2.05-2.09,3.06-3.18,.93-1.01,1.85-2.05,2.78-3.1,.04-.04,.08-.12,.16-.2,.97-1.09,1.89-2.25,2.82-3.38,3.7-4.59,7.12-9.42,10.18-14.49,.68-1.17,1.37-2.33,2.01-3.5,.8-1.37,1.57-2.82,2.29-4.23-24.87,5.27-50.95,7.77-76.02,13.12Zm-116.18,33.88c3.38,2.41,6.84,4.67,10.46,6.68-3.62-2.05-7.08-4.31-10.46-6.68Z"/><path class="cls-1" d="M160.96,210.59c-1.36,2.97-2.94,6.89-4.29,11.56-1.36,4.74-2.45,10.35-2.82,16.53-31.89,11.94-57.8,18.75-74.86,20.41-1.58-2.64-3.01-5.35-4.33-8.13-2.45-4.97-4.56-10.13-6.33-15.48-.53-1.58-1.05-3.2-1.51-4.82-.49-1.62-.9-3.24-1.32-4.9-1.21-4.82-2.15-9.79-2.79-14.84-.72-5.53-1.13-11.26-1.13-17.06,0-3.16,.11-6.29,.38-9.41,8.17-8.06,16.64-15.74,26.47-21.54,17.43-10.35,37.01-14.16,57.27-16.49,.15,15.02,2.6,30.24,7.53,45.18,1.88,5.72,4.14,11.45,6.78,17.06,.26,.64,.6,1.28,.94,1.92Z"/><path class="cls-2" d="M206.49,274.11c-4.71,1.62-9.38,3.43-13.97,5.46-19.09,8.4-37.2,20.6-54,33.66-1.92-.83-3.77-1.77-5.61-2.75-1.84-.9-3.69-1.92-5.46-2.97-.9-.49-1.81-1.02-2.67-1.58-.41-.19-.79-.45-1.21-.68-.08-.07-.15-.11-.26-.19-.34-.23-.72-.45-1.05-.68-.9-.56-1.81-1.17-2.71-1.77-.87-.6-1.69-1.17-2.56-1.77-1.88-1.32-3.8-2.75-5.61-4.18-.08-.08-.19-.15-.26-.23-1.73-1.39-3.43-2.79-5.08-4.29-1.73-1.47-3.43-3.05-5.08-4.67l-.11-.11c-1.58-1.62-3.2-3.31-4.78-5.01-1.54-1.66-3.05-3.39-4.52-5.12l-.11-.11,.04-.04c18.41-5.12,39.69-12.2,63.37-21.31,.64,3.69,1.62,7.12,2.71,10.28,1.73,4.93,3.84,9.19,5.95,12.8,.94,1.62,1.84,3.09,2.79,4.41,1.54,2.22,5.01,1.62,5.72-1.02,.72-2.52,1.39-5.05,2.11-7.61,1.73-6.21,3.5-12.46,5.27-18.75,.6-2.15,1.28-4.37,1.88-6.59,.64-2.37,3.69-3.16,5.38-1.36,.87,.94,1.77,1.88,2.67,2.79,4.33,4.48,8.96,8.62,13.82,12.43,0,.11,.04,.26,.08,.38,.11,.56,.34,1.09,.6,1.62l.87,1.92-.04,.3c-.38,1.54-.26,3.2,.41,4.74,.38,.75,.87,1.43,1.43,2Z"/><path class="cls-2" d="M247.64,196.54c-4.1-3.24-8.28-5.76-12.24-7.76,3.92-2.9,7.95-5.61,12.2-7.91,1.36-.75,2.75-1.43,4.18-2.07,1.17-.56,2.33-1.09,3.5-1.54,.57-.26,1.17-.49,1.69-.68,1.02-.41,2.07-.79,3.13-1.17,1.73-.64,3.46-1.2,5.2-1.69,1.32-.38,2.6-.75,3.92-1.09,.98-.26,2-.53,3.01-.75,1.28-.34,2.6-.64,3.92-.9,.41-.08,.87-.19,1.28-.26,1.92-.41,3.84-.75,5.8-1.09,4.03-.72,8.1-1.32,12.16-1.92,.11,0,.23-.04,.34-.04-12.31,8.74-28.5,18.53-48.08,28.88Z"/><path class="cls-2" d="M323.66,193.87c0,1.77-.04,3.58-.11,5.31-.15,3.54-.41,7.04-.87,10.51-.6,5.16-1.51,10.24-2.75,15.21-.79,3.31-1.77,6.59-2.79,9.79-.53,1.66-1.09,3.31-1.69,4.93-.6,1.62-1.24,3.24-1.92,4.86-.68,1.58-1.39,3.2-2.15,4.78-.64,1.43-1.32,2.86-2.07,4.25-.04,.11-.11,.23-.15,.34-24.85,5.27-50.95,7.76-76.02,13.1l2.37-1.13c2.11-.94,3.58-2.82,4.07-4.97,.34-1.51,.23-3.09-.53-4.59-.72-1.43-1.73-2.52-2.97-3.24-.19-.15-.41-.26-.68-.34l-.83-1.96c-.38-.64-.72-1.28-1.17-1.73,.23-7.38-.04-14.87-1.02-22.4-.34-2.45,2.26-4.25,4.52-3.24,10.39,4.63,20.78,9.34,31.18,14.01,2.48,1.09,5.12-1.17,4.37-3.8-1.92-6.93-5.53-15.85-12.46-24.7,16.87-8.59,32.04-16.87,45.33-24.78,5.95-3.5,11.52-6.93,16.76-10.28,.11,.72,.19,1.39,.34,2.15,.15,1.32,.34,2.67,.49,4.07,.11,1.13,.23,2.3,.3,3.39,.11,1.17,.19,2.33,.23,3.46,.15,2.33,.23,4.67,.23,7Z"/><path class="cls-2" d="M309.17,253.84c-.72,1.41-1.49,2.86-2.29,4.23-.64,1.17-1.33,2.33-2.01,3.5-3.06,5.07-6.48,9.9-10.18,14.49-.93,1.13-1.85,2.29-2.82,3.38-.08,.08-.12,.16-.16,.2-.93,1.05-1.85,2.09-2.78,3.1-1.01,1.09-2.01,2.13-3.06,3.18-.93,.97-1.89,1.89-2.86,2.86-.08,.04-.2,.16-.28,.24-1.09,1.01-2.17,2.01-3.26,2.98-1.09,.97-2.21,1.93-3.34,2.86-1.13,.97-2.29,1.85-3.46,2.78-2.33,1.77-4.75,3.5-7.2,5.15-1.21,.85-2.45,1.65-3.7,2.41-1.25,.76-2.54,1.53-3.78,2.29-2.13,1.21-4.35,2.41-6.56,3.5-.64,.36-1.33,.68-2.01,1.01-5.11,2.45-10.42,4.63-15.9,6.4-1.17,.4-2.33,.76-3.5,1.13-.52,.12-1.01,.28-1.53,.44-1.21,.32-2.45,.64-3.66,.97-1.29,.32-2.54,.64-3.82,.89-2.01,.44-3.98,.85-6,1.21-1.21,.2-2.45,.4-3.66,.56-1.53,.24-3.06,.4-4.63,.56-1.65,.2-3.34,.32-4.99,.44-1.29,.08-2.54,.16-3.78,.2-1.77,.08-3.54,.12-5.31,.12-6.04,0-11.99-.4-17.79-1.21-1.17-.16-2.33-.32-3.5-.52-1.13-.16-2.29-.36-3.42-.6-2.29-.44-4.55-.93-6.8-1.49-1.13-.28-2.21-.56-3.34-.89-6.64-1.81-13.08-4.14-19.28-6.96,16.82-13.08,34.93-25.27,54-33.68,4.59-2.01,9.26-3.82,13.96-5.43,2.09,2.13,5.43,2.82,8.29,1.49l18.39-8.65c25.07-5.35,51.15-7.85,76.02-13.12Z"/><path class="cls-4" d="M309.17,253.84c-.72,1.41-1.49,2.86-2.29,4.23-.64,1.17-1.33,2.33-2.01,3.5-3.06,5.07-6.48,9.9-10.18,14.49-.93,1.13-1.85,2.29-2.82,3.38-.08,.08-.12,.16-.16,.2-.93,1.05-1.85,2.09-2.78,3.1-1.01,1.09-2.01,2.13-3.06,3.18-.93,.97-1.89,1.89-2.86,2.86-.08,.04-.2,.16-.28,.24-1.09,1.01-2.17,2.01-3.26,2.98-1.09,.97-2.21,1.93-3.34,2.86-1.13,.97-2.29,1.85-3.46,2.78-2.33,1.77-4.75,3.5-7.2,5.15-1.21,.85-2.45,1.65-3.7,2.41-1.25,.76-2.54,1.53-3.78,2.29-2.13,1.21-4.35,2.41-6.56,3.5-.64,.36-1.33,.68-2.01,1.01-5.11,2.45-10.42,4.63-15.9,6.4-1.17,.4-2.33,.76-3.5,1.13-.52,.12-1.01,.28-1.53,.44-1.21,.32-2.45,.64-3.66,.97-1.29,.32-2.54,.64-3.82,.89-2.01,.44-3.98,.85-6,1.21-1.21,.2-2.45,.4-3.66,.56-1.53,.24-3.06,.4-4.63,.56-1.65,.2-3.34,.32-4.99,.44-1.29,.08-2.54,.16-3.78,.2-1.77,.08-3.54,.12-5.31,.12-6.04,0-11.99-.4-17.79-1.21-1.17-.16-2.33-.32-3.5-.52-1.13-.16-2.29-.36-3.42-.6-2.29-.44-4.55-.93-6.8-1.49-1.13-.28-2.21-.56-3.34-.89-6.64-1.81-13.08-4.14-19.28-6.96,16.82-13.08,34.93-25.27,54-33.68,4.59-2.01,9.26-3.82,13.96-5.43,2.09,2.13,5.43,2.82,8.29,1.49l18.39-8.65c25.07-5.35,51.15-7.85,76.02-13.12Z"/><path class="cls-2" d="M283.62,99.63c-5.75,5.07-12.6,9.09-19.28,13-15.09,8.73-30.34,17.46-46.88,22.86-8.13,2.66-16.54,4.43-25.07,5.79-11.35-12.15-24.51-22.09-38.75-29.58-1.85-.97-4.14,.12-4.59,2.17-2.29,10.58-3.46,21.53-3.34,32.56-20.24,2.33-39.84,6.12-57.26,16.5-9.82,5.79-18.31,13.48-26.48,21.53,.12-1.65,.28-3.34,.44-4.99,.16-1.65,.4-3.3,.64-4.91,.2-1.41,.4-2.78,.68-4.14,.24-1.33,.48-2.62,.76-3.9,.36-1.77,.8-3.54,1.25-5.31,.4-1.57,.8-3.1,1.29-4.63,.52-1.93,1.17-3.82,1.81-5.71,.52-1.49,1.05-2.94,1.61-4.39,.36-.93,.72-1.85,1.13-2.74,.36-.97,.76-1.89,1.21-2.82,.6-1.41,1.25-2.78,1.93-4.14,.44-.93,.89-1.81,1.33-2.74,.44-.89,.93-1.77,1.45-2.66,.64-1.17,1.29-2.33,1.97-3.5,.16-.32,.32-.6,.52-.89,.64-1.17,1.37-2.29,2.09-3.42,1.45-2.29,2.98-4.51,4.55-6.68,.85-1.17,1.73-2.33,2.62-3.46,5.03-2.29,10.34-3.78,15.73-5.03,32.68-7.53,67.12-5.15,99.6-13.56,2.66-.68,5.35-1.49,8.01-2.41,.8-.28,1.61-.56,2.41-.89,1.17-.44,2.33-.89,3.46-1.41,1.45-.64,2.86-1.33,4.23-2.05,.8-.4,1.53-.8,2.29-1.25,.16-.12,.36-.2,.52-.32,.64-.36,1.25-.8,1.89-1.21,2.29-1.49,4.43-3.14,6.32-5.03,1.29-1.21,2.49-2.54,3.58-3.94,1.13-1.41,2.09-2.9,2.98-4.51,.16,.04,.28,.12,.44,.2,1.57,.6,3.14,1.25,4.67,1.93,.48,.2,.97,.4,1.45,.64,1.09,.48,2.21,1.01,3.3,1.53,.6,.32,1.17,.6,1.77,.93,1.69,.84,3.38,1.73,5.03,2.7,.84,.48,1.69,.97,2.54,1.53,1.45,.76,2.86,1.65,4.27,2.58,1.65,1.05,3.26,2.17,4.87,3.3,1.25,.89,2.45,1.81,3.66,2.74,.72,.52,1.41,1.09,2.09,1.65,1.73,1.33,3.42,2.74,5.03,4.23,1.45,1.25,2.86,2.54,4.23,3.86Z"/><path class="cls-4" d="M240.29,71.81c-6.96,12.79-21.62,19.4-35.71,23.03-32.47,8.41-66.9,6.05-99.59,13.57-5.38,1.25-10.71,2.75-15.73,5.02,23.95-30.77,61.33-50.56,103.37-50.56,16.82,0,32.88,3.16,47.67,8.94Z"/><path class="cls-3" d="M66.83,230.66c.45,1.62,.98,3.24,1.51,4.82l.04-.04c-.53-1.58-1.05-3.16-1.54-4.78Z"/><path class="cls-3" d="M322.12,173.76s-.04,.04-.04,.04c-5.23,3.35-10.81,6.78-16.76,10.28-13.29,7.91-28.47,16.19-45.33,24.78-6.06,3.05-12.31,6.18-18.83,9.3-.04,0-.04,.04-.07,.04-8.21,3.99-16.83,7.98-25.76,12.09-21.58,9.79-41.8,18.3-60.51,25.49-23.68,9.11-44.96,16.19-63.37,21.31l-.04,.04c-59.68,16.57-89.43,12.46-75.23-9.68,7.12-11.15,25.08-25.87,49.33-41.68,.41,1.66,.83,3.28,1.32,4.9,.45,1.62,.98,3.24,1.51,4.82-5.42,4.93-9.15,9.3-10.73,12.99-3.84,8.77,4.26,12.28,21.35,10.62h.04c17.06-1.66,42.96-8.47,74.86-20.41,7.3-2.71,14.91-5.69,22.78-8.92h.04c9.26-3.8,18.86-8.02,28.84-12.54,15.36-7.04,29.48-13.97,42.13-20.67,19.58-10.35,35.77-20.14,48.08-28.88,8.92-6.36,15.85-12.12,20.56-17.13,10.35-10.84,10.35-18.15-1.54-19.81-2.15-.3-4.67-.38-7.49-.26-.38-.72-.75-1.39-1.17-2.11-.41-.72-.83-1.39-1.24-2.07-.34-.6-.72-1.17-1.09-1.77-.53-.9-1.09-1.77-1.69-2.64-.3-.49-.6-.98-.94-1.43,23.27-6.25,43.08-9.75,56.52-9.38,34.87,1.05,20.97,26.51-35.51,62.69Z"/></g></svg>